<?xml version="1.0" encoding="UTF-8" standalone="no"?>
<!-- Created with Inkscape (http://www.inkscape.org/) -->

<svg
   xmlns:dc="http://purl.org/dc/elements/1.1/"
   xmlns:cc="http://creativecommons.org/ns#"
   xmlns:rdf="http://www.w3.org/1999/02/22-rdf-syntax-ns#"
   xmlns:svg="http://www.w3.org/2000/svg"
   xmlns="http://www.w3.org/2000/svg"
   xmlns:sodipodi="http://sodipodi.sourceforge.net/DTD/sodipodi-0.dtd"
   xmlns:inkscape="http://www.inkscape.org/namespaces/inkscape"
   width="744.09448819"
   height="1052.3622047"
   id="svg5233"
   version="1.1"
   inkscape:version="0.48.2 r9819"
   sodipodi:docname="OhEyeBoardLogo.svg">
  <defs
     id="defs5235">
    <filter
       id="filter8055"
       inkscape:label="Roughen"
       inkscape:menu="ABCs"
       inkscape:menu-tooltip="Small-scale roughening to edges and content"
       color-interpolation-filters="sRGB">
      <feTurbulence
         id="feTurbulence8057"
         numOctaves="3"
         seed="0"
         type="turbulence"
         baseFrequency="0.04"
         result="result91" />
      <feDisplacementMap
         id="feDisplacementMap8059"
         in2="result91"
         scale="6.6"
         yChannelSelector="G"
         xChannelSelector="R"
         in="SourceGraphic" />
    </filter>
  </defs>
  <sodipodi:namedview
     id="base"
     pagecolor="#ffffff"
     bordercolor="#666666"
     borderopacity="1.0"
     inkscape:pageopacity="0.0"
     inkscape:pageshadow="2"
     inkscape:zoom="0.88504464"
     inkscape:cx="374.72644"
     inkscape:cy="710.81901"
     inkscape:document-units="px"
     inkscape:current-layer="layer1"
     showgrid="false"
     inkscape:window-width="1280"
     inkscape:window-height="724"
     inkscape:window-x="0"
     inkscape:window-y="0"
     inkscape:window-maximized="0"
     showguides="true"
     inkscape:guide-bbox="true">
    <sodipodi:guide
       orientation="0,1"
       position="422.84986,953.17994"
       id="guide7323" />
    <sodipodi:guide
       orientation="1,0"
       position="169.48298,632.73645"
       id="guide4538" />
    <sodipodi:guide
       orientation="1,0"
       position="571.72257,645.1652"
       id="guide4540" />
  </sodipodi:namedview>
  <metadata
     id="metadata5238">
    <rdf:RDF>
      <cc:Work
         rdf:about="">
        <dc:format>image/svg+xml</dc:format>
        <dc:type
           rdf:resource="http://purl.org/dc/dcmitype/StillImage" />
        <dc:title />
      </cc:Work>
    </rdf:RDF>
  </metadata>
  <g
     inkscape:label="Layer 1"
     inkscape:groupmode="layer"
     id="layer1">
    <g
       id="g3037"
       transform="translate(0,-85.871374)">
      <path
         inkscape:connector-curvature="0"
         id="path5306"
         d="m 360.86498,479.57844 c -0.30251,-0.78835 0.33008,-2.37799 1.40576,-3.53254 1.07569,-1.15456 3.88233,-5.52424 6.237,-9.71043 2.35467,-4.18618 4.62733,-7.61352 5.05036,-7.6163 0.42301,-0.003 0.4919,0.71739 0.15306,1.60039 -0.47745,1.24421 0.2526,1.60546 3.2445,1.60546 2.12332,0 3.86057,0.48164 3.86057,1.0703 0,0.58867 0.72246,1.07031 1.60546,1.07031 0.883,0 1.60545,-0.245 1.60545,-0.54442 0,-1.23852 -5.81028,-6.94771 -7.07072,-6.94771 -2.43764,0 -2.5495,-1.76444 -0.3946,-6.22455 1.16259,-2.40629 2.11381,-4.87059 2.11381,-5.47621 0,-0.60562 2.65742,-5.80649 5.90539,-11.55747 3.24795,-5.75098 6.19933,-12.26247 6.5586,-14.46997 0.35928,-2.20751 1.10174,-4.01364 1.64992,-4.01364 0.54817,0 0.7292,-0.43279 0.40228,-0.96175 -0.32692,-0.52896 0.59961,-2.09428 2.05895,-3.47848 1.45933,-1.38422 2.66166,-2.90499 2.67183,-3.37951 0.0107,-0.47452 1.4634,-3.77499 3.2294,-7.33438 1.766,-3.5594 3.21091,-7.70657 3.21091,-9.21594 0,-1.50936 0.31936,-2.42494 0.7097,-2.03461 0.94158,0.94159 3.51889,-3.3748 12.3144,-20.62366 4.94185,-9.69145 6.98177,-14.73701 6.25289,-15.46589 -1.61235,-1.61235 -1.31179,-2.57511 0.75169,-2.40781 1.16014,0.0941 2.5823,-1.42368 3.87235,-4.13256 1.12136,-2.35467 2.41573,-4.52203 2.87639,-4.81637 0.46066,-0.29433 2.11422,-3.18415 3.6746,-6.42182 1.56036,-3.23767 4.96584,-9.97117 7.56772,-14.96335 2.60188,-4.99217 5.01635,-10.37731 5.3655,-11.96697 0.34915,-1.58965 1.32631,-3.46417 2.17147,-4.16559 0.84517,-0.70142 1.53666,-2.19472 1.53666,-3.31845 0,-1.12374 0.72245,-2.32038 1.60545,-2.65922 0.883,-0.33884 1.60546,-1.45556 1.60546,-2.48158 0,-1.02604 1.34002,-3.74391 2.97781,-6.03974 3.78419,-5.30457 10.93614,-19.2517 10.93614,-21.32671 0,-0.86781 0.96327,-1.57783 2.1406,-1.57783 1.17734,0 2.14061,0.5321 2.14061,1.18244 0,0.65035 1.20409,3.57974 2.67576,6.50976 1.47167,2.93003 2.67576,5.90837 2.67576,6.61853 0,0.71017 0.92654,3.10857 2.05899,5.3298 1.13244,2.22122 2.57039,5.33329 3.19545,6.9157 0.62505,1.58242 1.55663,3.59958 2.07017,4.48258 2.75232,4.7324 4.44873,8.53753 4.44873,9.97871 0,1.83518 3.34269,8.57035 4.51491,9.09708 0.42286,0.19001 1.0795,2.00147 1.4592,4.02546 0.37972,2.02399 1.11741,3.94391 1.63935,4.26648 0.52193,0.32258 0.94897,1.46982 0.94897,2.54943 0,1.07962 0.72246,2.24016 1.60546,2.579 0.883,0.33884 1.60545,1.30813 1.60545,2.15397 0,0.84585 0.92757,3.38956 2.06127,5.65269 1.13369,2.26313 3.39796,7.0046 5.0317,10.53661 1.63374,3.532 3.60612,6.81265 4.38306,7.29033 0.77696,0.47767 1.15335,1.28804 0.83645,1.8008 -0.91329,1.47774 4.63628,12.68053 6.87518,13.87875 1.34241,0.71844 1.83377,1.81651 1.45719,3.25654 -0.3603,1.37779 2.02435,7.45045 6.51836,16.59939 3.89758,7.93473 7.09066,14.78996 7.09574,15.23384 0.0126,1.10083 10.54871,21.81681 12.1141,23.81858 2.13669,2.73233 4.08084,6.56051 4.53841,8.93646 0.24066,1.24963 2.12904,5.7409 4.1964,9.9806 2.06737,4.23969 3.75884,8.00132 3.75884,8.35918 0,0.35787 2.12881,4.96681 4.73067,10.2421 4.72003,9.56983 4.72545,9.59423 2.40819,10.83473 -2.42086,1.29596 -15.38014,1.55882 -16.6022,0.33675 -1.28902,-1.28901 3.40488,-3.73649 7.25973,-3.78534 l 3.80907,-0.0483 -3.19226,-1.36117 c -4.25246,-1.81325 -7.99167,-0.96493 -9.14757,2.07531 -0.64944,1.70815 -2.13673,2.70227 -4.78656,3.19939 -4.45352,0.83547 -5.68161,0.12251 -3.76561,-2.18612 1.15406,-1.39056 0.86015,-1.73062 -1.98809,-2.30027 -1.8383,-0.36767 -3.34235,-1.255 -3.34235,-1.97187 0,-0.71687 -2.04696,-2.33579 -4.54879,-3.59759 -3.71429,-1.87331 -5.30067,-2.1177 -8.64722,-1.33216 -5.09811,1.19668 -5.65786,1.74163 -3.92885,3.82496 1.85144,2.23086 0.70956,3.13082 -2.07891,1.63848 -1.24424,-0.6659 -1.93832,-1.73486 -1.54241,-2.37547 0.49767,-0.80524 -0.48415,-0.93888 -3.18093,-0.43296 -4.51153,0.84638 -4.86815,-0.0189 -1.37286,-3.3311 1.94592,-1.84398 2.7754,-2.07816 3.79099,-1.07031 1.01743,1.00969 1.13619,0.85995 0.54629,-0.68887 -0.66827,-1.75459 -0.50948,-1.82646 1.40027,-0.63381 2.20441,1.37668 5.64847,0.78231 5.64847,-0.97481 0,-0.53849 -0.96327,-1.23097 -2.14061,-1.53885 -1.17733,-0.30788 -2.1406,-1.3835 -2.1406,-2.39027 0,-1.40737 -0.55665,-1.65681 -2.40819,-1.07912 -1.3245,0.41324 -5.05718,1.25002 -8.29485,1.85948 -3.23767,0.60946 -6.48872,1.59059 -7.22455,2.18028 -0.90966,0.72899 -1.84219,0.65362 -2.9135,-0.23548 -1.25545,-1.04194 -1.89969,-0.98358 -3.17049,0.28722 -0.92261,0.92263 -5.55941,2.10839 -11.00044,2.81316 -5.17308,0.67005 -12.77704,1.65573 -16.89771,2.19038 -4.12067,0.53466 -11.34522,0.76911 -16.05456,0.521 -23.27767,-1.22641 -25.15214,-1.50216 -25.15214,-3.70011 0,-0.52148 3.49187,-0.68075 7.75971,-0.35393 19.43758,1.4885 52.98584,-0.60333 55.8659,-3.48337 0.77445,-0.77445 1.6723,-1.14389 1.99522,-0.82097 0.32292,0.32292 3.87212,-0.15655 7.88712,-1.0655 4.01499,-0.90895 10.53888,-2.16667 14.49753,-2.79494 3.95866,-0.62825 8.53421,-1.65049 10.16789,-2.27163 2.65276,-1.0086 2.76767,-1.24275 1.07479,-2.19016 -3.08916,-1.72882 -1.00881,-3.06228 2.18125,-1.39813 3.48371,1.81733 10.60885,2.03493 11.17342,0.34122 0.21962,-0.65887 2.0659,-1.37894 4.10282,-1.60016 10.92048,-1.186 11.79851,-1.58031 9.97083,-4.47777 -1.31694,-2.0878 -4.1267,-2.45365 -4.1267,-0.53733 0,0.7064 -0.5726,1.85696 -1.27244,2.5568 -1.49698,1.49698 -8.67583,-1.48492 -13.8081,-5.73551 -4.97525,-4.12055 -7.06331,-5.0026 -8.54085,-3.6079 -2.3863,2.2525 -7.05199,5.40141 -8.311,5.60916 -0.68587,0.11319 -2.69194,0.52946 -4.45794,0.92508 -2.78495,0.62387 -2.97472,0.53213 -1.43059,-0.6915 0.97918,-0.77594 2.66491,-1.95636 3.74607,-2.62316 1.08115,-0.66679 1.60746,-1.58697 1.16957,-2.04484 -0.43789,-0.45788 -1.68107,-0.0317 -2.76261,0.94711 -1.08156,0.97878 -2.3077,1.43836 -2.72477,1.02128 -0.41709,-0.41707 -1.03476,0.29874 -1.37261,1.59071 -0.48343,1.84861 -1.30462,2.29467 -3.85473,2.09387 -1.94424,-0.1531 -3.4436,0.32157 -3.74831,1.18665 -0.40169,1.14034 -0.048,1.19568 1.69161,0.26468 1.46225,-0.78258 2.42337,-0.81488 2.86743,-0.0963 0.81363,1.31648 -1.741,2.38738 -6.26592,2.62664 -1.85333,0.098 -4.72554,0.75014 -6.3827,1.44919 -3.95967,1.67036 -7.45586,1.6364 -6.88436,-0.0669 0.24691,-0.73583 1.12991,-1.40273 1.96223,-1.482 0.83232,-0.0793 2.47659,-0.21499 3.65392,-0.30161 2.08597,-0.15348 2.08903,-0.19655 0.11973,-1.68745 -1.59236,-1.20551 -2.5002,-1.26595 -4.28122,-0.28501 -1.24318,0.68472 -2.90344,1.35192 -3.68947,1.48268 -16.32143,2.71509 -25.89575,3.37441 -32.28543,2.22328 -2.06033,-0.37118 -6.11433,-0.91736 -9.00889,-1.21373 -2.89455,-0.29636 -5.78437,-1.07737 -6.42182,-1.73559 -0.85262,-0.8804 0.50688,-0.99368 5.14293,-0.42855 15.35348,1.87158 35.56325,0.64357 42.91285,-2.60751 2.80922,-1.24265 5.70419,-2.25936 6.43327,-2.25936 0.72908,0 4.80835,-1.74235 9.06505,-3.87189 7.07336,-3.53866 7.59303,-4.01832 6.03812,-5.57322 -1.32885,-1.32886 -1.9842,-1.41848 -2.99335,-0.40933 -0.7106,0.71061 -2.69211,1.29201 -4.40337,1.29201 -2.55621,0 -2.96778,-0.33419 -2.30665,-1.87303 0.44259,-1.03017 1.64629,-4.28122 2.67487,-7.22455 1.62271,-4.64343 1.66788,-5.56395 0.3414,-6.95698 -1.35889,-1.42707 -1.64156,-1.42707 -2.54397,0 -0.55836,0.883 -1.02259,2.92996 -1.0316,4.54879 -0.009,1.61884 -0.49802,2.94334 -1.08669,2.94334 -0.58867,0 -1.0703,0.61511 -1.0703,1.36692 0,0.75182 -1.39732,2.89679 -3.10514,4.76661 -1.70783,1.86983 -3.29723,3.97597 -3.532,4.6803 -0.23478,0.70433 -1.04029,1.07613 -1.79003,0.82621 -0.93692,-0.3123 -0.51725,-1.36713 1.34212,-3.37342 4.31234,-4.6531 8.58293,-15.48476 7.38552,-18.73224 -1.6941,-4.59466 -5.65199,-3.70364 -5.65199,1.27238 0,4.83383 -5.08965,14.49711 -8.72448,16.56445 -1.66943,0.9495 -3.03837,2.52395 -3.0421,3.49877 -0.006,1.56235 -1.56064,1.75182 -13.11798,1.5986 -9.46609,-0.1255 -13.85513,-0.61826 -15.78698,-1.77242 -3.36529,-2.01054 -10.70304,-9.37449 -10.70304,-10.74124 0,-1.55661 0.84872,-1.24682 3.3001,1.20456 1.2264,1.2264 2.52362,1.93599 2.88271,1.57689 0.35911,-0.3591 -1.03915,-2.29642 -3.10725,-4.30516 -2.06809,-2.00873 -4.40568,-5.60816 -5.19463,-7.99871 -0.78895,-2.39056 -1.87735,-4.34646 -2.41864,-4.34646 -1.51632,0 0.22759,13.85243 2.36796,18.80952 1.96363,4.54777 8.15353,11.14547 10.46461,11.15403 0.73583,0.003 1.33788,0.64713 1.33788,1.43202 0,0.7849 -0.70174,1.42708 -1.55941,1.42708 -0.85766,0 -1.80582,-0.64218 -2.10701,-1.42708 -0.30119,-0.78489 -1.28518,-1.42707 -2.18667,-1.42707 -0.90147,0 -1.63904,-0.73278 -1.63904,-1.6284 0,-0.89562 -1.10026,-2.12971 -2.44503,-2.74243 -2.81302,-1.2817 -6.6354,-9.06249 -7.70871,-15.69175 -0.78407,-4.84285 -1.56093,-5.92468 -3.41188,-4.75136 -1.28085,0.81193 -1.35303,7.68278 -0.0807,7.68664 0.4415,0.001 0.80273,0.93132 0.80273,2.0666 0,1.13529 0.62899,2.70061 1.39776,3.47849 3.36429,3.40414 3.1798,8.3713 -0.31091,8.3713 -1.04228,0 -2.49463,-0.72245 -3.22746,-1.60545 -0.73283,-0.88301 -2.2818,-1.60546 -3.44216,-1.60546 -1.16037,0 -2.34139,-0.88572 -2.62448,-1.96828 -0.37156,-1.42086 -1.61048,-2.01121 -4.45465,-2.12265 -2.16696,-0.0849 -5.83089,-1.11845 -8.14208,-2.29676 -4.24319,-2.16331 -5.68544,-2.19789 -4.39217,-0.10532 0.38803,0.62783 1.64035,1.14151 2.78294,1.14151 1.14259,0 2.07744,0.67025 2.07744,1.48943 0,0.81919 1.20409,1.79163 2.67576,2.16099 1.47166,0.36938 2.67576,1.41329 2.67576,2.31981 0,0.90653 -0.4754,1.35442 -1.05645,0.99531 -1.25132,-0.77336 -4.72115,2.36658 -5.74183,5.19592 -0.58783,1.62946 -1.01009,1.75214 -2.31197,0.67168 -0.87603,-0.72705 -1.62354,-1.14252 -1.66112,-0.92327 -0.0376,0.21924 -0.2224,1.96394 -0.41071,3.87711 -0.33248,3.37781 -0.22389,3.47849 3.75123,3.47849 2.25148,0 4.42456,0.53548 4.82905,1.18996 0.96429,1.56027 -1.76423,3.26148 -3.82003,2.38176 -0.883,-0.37785 -3.29118,-0.8843 -5.35151,-1.12542 -2.06034,-0.24114 -4.82902,-0.9712 -6.15263,-1.62236 -3.90475,-1.92097 -3.59498,-0.57663 1.00291,4.35256 3.4159,3.66202 4.83766,4.49799 6.8086,4.00331 1.46114,-0.36673 2.83899,-0.0704 3.33242,0.71657 1.08893,1.73677 1.62315,9.36909 0.65579,9.36909 -0.40726,0 -2.44651,-1.62164 -4.53167,-3.60365 -2.68463,-2.55182 -5.39698,-3.90588 -9.29282,-4.63914 l -5.50163,-1.03549 1.02016,2.92645 c 0.97693,2.80242 2.46936,3.7299 8.37765,5.20637 1.89151,0.47267 2.65085,1.36594 2.59078,3.04766 -0.0468,1.30846 0.26295,2.37901 0.68821,2.37901 1.48278,0 2.13472,3.58129 0.8019,4.40503 -0.73873,0.45655 -0.98783,1.1854 -0.55356,1.61967 0.43426,0.43426 1.30379,0.27534 1.93228,-0.35315 1.69322,-1.69322 5.24343,-0.37602 5.24343,1.94541 0,2.42726 -1.64033,2.5426 -5.74144,0.40373 -1.68618,-0.8794 -4.93723,-1.59889 -7.22461,-1.59889 -3.10419,0 -4.15886,-0.43564 -4.15886,-1.71788 0,-1.36831 0.90143,-1.6319 4.42997,-1.2954 l 4.42998,0.42246 -4.07315,-3.52096 c -2.3814,-2.05855 -5.2438,-3.52095 -6.89167,-3.52095 -1.55019,0 -3.28439,-0.46586 -3.85378,-1.03525 -0.56938,-0.56938 -2.10455,-0.75562 -3.41148,-0.41385 l -2.37623,0.6214 2.25904,3.17253 c 1.76882,2.48408 2.81105,3.03398 4.80287,2.53406 2.17399,-0.54564 2.54384,-0.24647 2.54384,2.05769 0,1.80592 -0.61846,2.73802 -1.87303,2.82296 -3.24621,0.21979 -5.04948,-0.23384 -6.15425,-1.54815 -0.58867,-0.70033 -3.09388,-1.33169 -5.56714,-1.40305 -4.16176,-0.12006 -4.36587,2.8e-4 -2.73907,1.61492 0.96677,0.95953 3.23117,1.74462 5.03199,1.74462 2.19688,0 3.27422,0.52825 3.27422,1.60546 0,2.20768 -15.36849,2.70895 -16.20519,0.52856 z m 186.38348,-5.88008 c -0.36382,-0.58867 -1.1147,-1.0703 -1.66863,-1.0703 -0.55392,0 -1.00713,0.48163 -1.00713,1.0703 0,0.58867 0.75088,1.0703 1.66862,1.0703 0.91775,0 1.37096,-0.48163 1.00714,-1.0703 z m 17.66001,-0.53515 c 0,-0.883 -0.74144,-1.60546 -1.64766,-1.60546 -1.36132,0 -1.40781,0.27192 -0.26757,1.56474 1.75442,1.98917 1.91523,1.9926 1.91523,0.0407 z m -192.14241,-4.84166 c -1.49188,-1.64851 -2.16133,-1.84033 -2.80244,-0.80298 -0.5279,0.85416 -0.1578,1.63456 0.9915,2.09067 3.27561,1.29993 3.80928,0.92045 1.81094,-1.28769 z m 178.04407,0.56645 c 0.23419,-0.23419 -1.1347,-1.37481 -3.04199,-2.53471 -2.42594,-1.47529 -4.63274,-1.94754 -7.34525,-1.57188 -6.79791,0.94149 -7.24522,1.35077 -3.82107,3.49623 2.33288,1.4617 4.53861,1.85404 8.46851,1.50634 2.9227,-0.25859 5.50561,-0.66179 5.7398,-0.89598 z m 10.88743,-0.9166 c 0,-0.20648 -0.54148,-1.92871 -1.20328,-3.82715 -0.85867,-2.46321 -1.53301,-3.12198 -2.35467,-2.30032 -0.63326,0.63327 -2.25915,1.15139 -3.61309,1.15139 -3.11558,0 -3.15017,1.537 -0.0829,3.68538 2.0596,1.4426 7.25398,2.36684 7.25398,1.2907 z m -27.56032,-5.66305 c 2.2075,-0.36488 4.01364,-1.06173 4.01364,-1.54856 0,-0.48683 -2.04696,-2.07919 -4.54879,-3.53857 -4.12783,-2.40789 -4.96976,-2.54017 -9.09759,-1.42947 -4.8313,1.3 -5.74153,2.55116 -2.67575,3.67796 1.03016,0.37864 2.25819,1.32679 2.72894,2.10702 0.93774,1.55422 3.44454,1.74568 9.57955,0.73162 z m 18.52778,-3.20475 c 3.17328,-0.37296 5.52506,-1.07376 5.22619,-1.55735 -0.29889,-0.4836 -1.22903,-0.61617 -2.06701,-0.2946 -0.83796,0.32156 -2.79283,-0.6846 -4.34414,-2.23591 -2.52341,-2.52341 -3.50606,-2.78724 -9.3278,-2.50443 -3.57898,0.17387 -6.66213,0.79776 -6.85142,1.38643 -0.47252,1.46942 8.39412,7.05917 10.16565,6.40867 0.78592,-0.28859 4.02526,-0.82985 7.19853,-1.20281 z m -162.21605,-5.78961 c 0,-1.26816 -6.42665,-5.65487 -7.18035,-4.90116 -0.3494,0.3494 -1.20467,-0.14342 -1.9006,-1.09517 -0.96525,-1.32004 -1.2774,-1.37955 -1.31622,-0.25093 -0.028,0.81372 -0.37782,2.26293 -0.77737,3.22047 -0.53167,1.27413 0.009,1.92537 2.01312,2.42857 1.50678,0.37818 2.73959,1.07664 2.73959,1.55215 0,0.47549 1.44491,0.65248 3.21092,0.39328 1.766,-0.2592 3.21091,-0.86544 3.21091,-1.34721 z m 3.19211,-8.47956 c 1.32495,-0.83778 1.07126,-1.54121 -1.53813,-4.26483 -3.64821,-3.80791 -6.44797,-4.1626 -8.12487,-1.02929 -1.40463,2.62459 -1.52007,2.46406 3.25998,4.53363 4.61669,1.99885 4.47176,1.98164 6.40302,0.76049 z m 104.47048,-4.04003 c -0.74225,-0.74225 -2.77283,0.76585 -2.77283,2.05937 0,0.70972 0.61412,0.62851 1.63132,-0.21569 0.89723,-0.74463 1.41091,-1.57429 1.14151,-1.84368 z m 47.53144,0.89505 c 0,-0.53356 -0.96327,-0.7182 -2.1406,-0.41032 -1.17734,0.30788 -2.14061,0.74443 -2.14061,0.9701 0,0.22567 0.96327,0.41032 2.14061,0.41032 1.17733,0 2.1406,-0.43654 2.1406,-0.9701 z m -149.51955,-3.262 c -0.488,-1.86609 -0.13117,-2.02401 3.31111,-1.46541 2.77578,0.45045 3.85805,0.23513 3.85805,-0.76757 0,-2.15984 -3.31524,-5.30826 -5.58953,-5.30826 -1.5319,0 -1.88263,-0.51739 -1.39412,-2.05656 0.43204,-1.36125 -0.17158,-2.82453 -1.78532,-4.32797 -1.58617,-1.47775 -2.58535,-1.82951 -2.8596,-1.00676 -0.23185,0.69556 0.36319,1.70379 1.3223,2.24054 2.57261,1.43971 2.11937,3.01015 -0.86875,3.01015 -3.81551,0 -4.27842,1.74681 -1.17741,4.4431 1.49584,1.30062 2.7197,2.90402 2.7197,3.56313 0,0.99994 2.04914,3.76711 2.78962,3.76711 0.12149,0 -0.0253,-0.94118 -0.32605,-2.0915 z m 109.62317,-0.76762 c 0.26551,-0.79749 -0.38377,-1.04415 -1.78435,-0.6779 -1.21094,0.31668 -2.20172,1.03654 -2.20172,1.59972 0,1.42093 3.47353,0.61763 3.98607,-0.92182 z m 34.5441,-0.61937 c 0.002,-2.2853 -4.4917,-5.01082 -8.04184,-4.87735 l -3.82421,0.14376 3.20344,2.92589 c 2.94095,2.68615 8.66067,3.87973 8.66261,1.8077 z m -31.03804,-1.99936 c 0,-0.58867 -0.48164,-0.77264 -1.07031,-0.40882 -0.58866,0.36381 -1.0703,1.14311 -1.0703,1.73178 0,0.58867 0.48164,0.77264 1.0703,0.40882 0.58867,-0.36381 1.07031,-1.14311 1.07031,-1.73178 z m 11.05267,-1.84708 c -2.4734,-0.55247 -4.47463,1.81729 -2.5429,3.01116 1.03482,0.63956 1.96746,0.3635 2.86256,-0.84729 1.08766,-1.47127 1.02988,-1.86243 -0.31966,-2.16387 z m 25.35898,-1.19765 c -0.71637,-1.33856 -1.75534,-1.85859 -2.86357,-1.43331 -1.56108,0.59903 -1.53845,0.81428 0.22089,2.10074 2.80976,2.05455 3.94588,1.76761 2.64268,-0.66743 z m -119.89534,0.0912 c 0,-0.51658 -0.66242,-1.489 -1.47205,-2.16094 -1.43111,-1.18772 -4.60221,-10.54096 -4.11986,-12.15163 0.13221,-0.4415 -0.54104,-0.80273 -1.49611,-0.80273 -1.33135,0 -1.45839,0.33513 -0.54445,1.43636 0.65564,0.78999 0.95326,1.67517 0.66139,1.96705 -0.29188,0.29188 0.0183,2.10543 0.6892,4.0301 0.95344,2.73501 0.92193,3.68357 -0.14424,4.34249 -0.97396,0.60194 -0.47964,1.32213 1.72827,2.51796 3.57799,1.93791 4.69785,2.1337 4.69785,0.82134 z m 32.27176,-0.21338 c -3.73687,-0.48467 -8.79405,-1.90884 -11.23819,-3.16482 -3.84988,-1.97836 -4.1889,-2.02125 -2.53636,-0.32095 2.82595,2.90765 8.05535,4.48238 14.6822,4.42127 l 5.88667,-0.0543 -6.79432,-0.8812 z m 10.25052,-0.56431 c -0.35566,-0.35565 -1.2788,-0.39367 -2.05142,-0.0844 -0.85382,0.34167 -0.60021,0.59529 0.64664,0.64664 1.12827,0.0464 1.76043,-0.2065 1.40478,-0.56215 z m 48.45353,-1.49396 c 0,-0.58867 -0.51006,-1.0703 -1.13347,-1.0703 -0.62341,0 -0.8358,0.48163 -0.47198,1.0703 0.36381,0.58867 0.87388,1.0703 1.13347,1.0703 0.25959,0 0.47198,-0.48163 0.47198,-1.0703 z m 12.35251,-0.0712 c 0.38802,-0.62784 -0.1695,-1.78134 -1.23894,-2.56332 -1.64871,-1.20557 -2.13891,-1.15584 -3.22318,0.32698 -0.70331,0.96184 -1.05222,2.11534 -0.77534,2.56332 0.7501,1.21368 4.42715,0.98411 5.23746,-0.32698 z m -17.0718,-2.86425 c -0.74225,-0.74224 -2.77283,0.76586 -2.77283,2.05937 0,0.70972 0.61412,0.62852 1.63132,-0.21568 0.89723,-0.74463 1.41091,-1.57429 1.14151,-1.84369 z m -35.24944,-0.007 c 3.50983,-4.46015 3.78322,-6.08608 0.50622,-3.01067 -3.15858,2.96427 -4.20595,4.8837 -2.6649,4.8837 0.3766,0 1.34801,-0.84286 2.15868,-1.87303 z m 61.8596,0.63092 c 3.37135,-1.53607 3.46891,-3.22257 0.27205,-4.70287 -2.65944,-1.23145 -9.31927,-0.0451 -9.31927,1.66018 0,0.55304 1.3245,1.72408 2.94333,2.60232 3.61168,1.95936 2.88513,1.90695 6.10389,0.44037 z m -74.68576,-0.53497 c -0.38872,-0.38873 -3.3756,-0.84756 -6.63749,-1.01963 -4.48831,-0.23677 -7.09301,-1.0973 -10.70979,-3.53823 -2.62849,-1.77436 -4.77909,-2.82595 -4.77909,-2.33726 0,0.9519 6.97107,5.91843 9.63274,6.86284 2.35088,0.83413 13.32389,0.86212 12.49363,0.0319 z m 37.14872,-0.95427 c 0.3655,-0.95248 0.18607,-1.3821 -0.42064,-1.00713 -0.58192,0.35964 -1.05805,1.10712 -1.05805,1.66104 0,1.53956 0.76717,1.20031 1.47869,-0.65391 z m 20.50655,0.51954 c 1.05793,-1.71178 -0.12674,-2.35725 -2.78053,-1.51496 -1.84627,0.58598 -2.03936,0.95465 -0.88339,1.68678 1.96175,1.24247 2.81456,1.20247 3.66392,-0.17182 z m -49.48745,-3.62281 c 1.06213,-1.20596 2.66969,-3.84361 3.57236,-5.86144 1.86389,-4.16654 2.91415,-17.20214 1.38594,-17.20214 -0.86372,0 -1.58502,7.57872 -1.09142,11.46761 0.25535,2.0114 -8.21039,9.93805 -10.61438,9.93805 -1.17734,0 -2.14061,0.46959 -2.14061,1.04355 0,0.58384 1.53236,0.78575 3.47848,0.45835 3.14188,-0.52856 3.29724,-0.43687 1.60546,0.94748 -1.03017,0.84297 -1.87303,1.82568 -1.87303,2.18381 0,1.19549 3.72148,-0.75511 5.6772,-2.97569 z m 46.10013,-1.87172 c -0.82912,-1.34154 -3.22811,-1.00484 -4.59758,0.64528 -0.95719,1.15334 -0.92554,1.61031 0.13651,1.97127 1.71555,0.58306 5.18197,-1.45011 4.46107,-2.61655 z m -56.34842,1.70818 c -0.35565,-0.35565 -1.2788,-0.39367 -2.05142,-0.0844 -0.85381,0.34166 -0.6002,0.59528 0.64665,0.64664 1.12827,0.0465 1.76043,-0.2065 1.40477,-0.56215 z M 401.152,421.46802 c 0,-1.51253 -2.51008,-3.42497 -4.49527,-3.42497 -2.43353,0 -2.45213,0.9705 -0.0535,2.7913 2.10066,1.59462 4.54879,1.93566 4.54879,0.63367 z m 128.53679,-1.33806 c 2.4637,-1.31853 1.74515,-3.15722 -1.23382,-3.15722 -1.36389,0 -2.07743,0.73524 -2.07743,2.14061 0,2.4504 0.40173,2.57373 3.31125,1.01661 z m -80.42162,-1.6102 c -0.75949,-0.91513 -2.38379,-2.14829 -3.60954,-2.74034 -1.62268,-0.78377 -1.41213,-0.33137 0.77438,1.66389 3.327,3.03597 4.98335,3.66486 2.83516,1.07645 z m 33.15268,-3.42005 c 0.0414,-0.73583 -0.4064,-1.33788 -0.99507,-1.33788 -0.58867,0 -1.03645,1.56532 -0.99507,3.47849 0.063,2.915 0.22423,3.13173 0.99507,1.33788 0.50592,-1.17733 0.95371,-2.74265 0.99507,-3.47849 z m 40.21162,4.01364 c -0.36381,-0.58867 -1.1147,-1.0703 -1.66862,-1.0703 -0.55393,0 -1.00714,0.48163 -1.00714,1.0703 0,0.58867 0.75089,1.07031 1.66863,1.07031 0.91774,0 1.37095,-0.48164 1.00713,-1.07031 z m -121.3612,-4.52774 c -1.09645,-2.96398 -2.87019,-3.56366 -3.75105,-1.26818 -0.41876,1.09126 0.046,2.32169 1.1942,3.16124 2.48712,1.81863 3.6197,0.98009 2.55685,-1.89306 z m 116.01189,1.70304 c 1.4221,-0.54572 1.49394,-0.86717 0.35512,-1.58907 -2.10973,-1.33736 -3.03308,-1.13409 -3.03308,0.66771 0,1.81245 0.18759,1.877 2.67796,0.92136 z m 18.10542,0.0345 c 2.59297,-0.99505 2.01253,-2.56128 -0.94918,-2.56128 -1.90887,0 -2.47118,0.44558 -2.0261,1.60546 0.70279,1.83141 0.6977,1.82978 2.97528,0.95579 z m -77.93291,-2.2937 c 0.31883,-1.03017 1.02415,-2.70612 1.56736,-3.72434 0.75655,-1.41808 0.37771,-2.25097 -1.619,-3.55926 -2.89952,-1.89985 -2.58334,-4.75732 0.52641,-4.75732 1.07962,0 2.22186,-0.41895 2.53831,-0.93099 0.6417,-1.03828 -9.55797,-1.51953 -12.48996,-0.58931 -2.28556,0.72513 -2.43329,4.52938 -0.36786,9.47265 2.30107,5.50725 8.59649,8.12176 9.84474,4.08857 z m 43.23558,-0.63684 c 0,-0.79177 -0.96328,-2.31132 -2.14061,-3.3768 -2.07125,-1.87445 -2.14061,-1.86942 -2.14061,0.15521 0,2.12385 1.86439,4.66116 3.42497,4.66116 0.47094,0 0.85625,-0.64782 0.85625,-1.43957 z m -93.94754,-2.06925 c -0.40133,-2.27986 1.6546,-3.37996 3.48213,-1.86324 1.14312,0.94871 2.12222,0.81781 4.23433,-0.56611 3.49541,-2.29027 3.52722,-2.93369 0.0671,-1.35715 -1.47415,0.67167 -3.03947,0.8607 -3.47848,0.42007 -1.13503,-1.13921 4.07443,-5.10552 5.82395,-4.43417 0.79914,0.30666 3.37162,-1.17581 5.71663,-3.29438 3.05796,-2.76268 5.39683,-3.92477 8.27092,-4.10945 2.204,-0.14162 5.45219,-0.89303 7.21819,-1.66979 1.766,-0.77676 3.93337,-1.56644 4.81637,-1.75485 4.85359,-1.03559 14.97451,-2.13865 18.46274,-2.01219 2.2075,0.0801 4.02101,-0.35352 4.03002,-0.96343 0.0111,-0.75159 0.26978,-0.74664 0.80273,0.0154 0.43249,0.61837 2.95371,1.23578 5.60271,1.37203 9.25273,0.4759 11.80559,0.94639 13.65577,2.51671 1.025,0.86996 4.031,2.83141 6.68,4.35876 2.649,1.52737 7.68534,5.22113 11.19186,8.20838 3.50652,2.98724 7.03853,5.43135 7.84889,5.43135 2.28699,0 1.32787,-1.21536 -6.80739,-8.62609 -7.10168,-6.46921 -10.12909,-8.53141 -14.64154,-9.97358 -2.13976,-0.68385 -2.55378,-2.8257 -0.53516,-2.76847 0.73584,0.0209 2.54197,0.72624 4.01364,1.56752 1.47167,0.84128 3.48524,1.54667 4.47461,1.56752 0.98937,0.0209 4.12001,2.44352 6.95697,5.38367 4.76826,4.94169 8.04385,6.54495 9.28127,4.54277 0.27688,-0.44799 -0.17634,-1.74414 -1.00714,-2.88033 -0.83081,-1.13622 -1.51056,-1.49214 -1.51056,-0.79096 0,2.24006 -1.45933,1.39226 -8.02727,-4.66341 -3.53201,-3.25653 -8.58919,-6.92471 -11.23819,-8.15152 -2.649,-1.22681 -6.08388,-2.88678 -7.63305,-3.68882 -3.86894,-2.00301 -10.56212,-2.98706 -10.56212,-1.55286 0,0.62497 -0.72245,1.13632 -1.60545,1.13632 -0.883,0 -1.60546,-0.72246 -1.60546,-1.60546 0,-0.883 -0.51006,-1.60546 -1.13347,-1.60546 -0.62341,0 -0.88786,-0.3974 -0.58767,-0.8831 0.87182,-1.41064 15.02854,0.69917 20.53806,3.06083 2.76801,1.18651 5.27433,1.9157 5.56959,1.62043 0.29528,-0.29528 -0.37494,-0.85999 -1.48936,-1.25493 -1.11442,-0.39494 -4.15054,-1.65766 -6.74693,-2.80602 -4.13064,-1.82696 -14.53986,-3.90138 -20.96658,-4.17836 -3.18998,-0.13748 -12.53939,1.03306 -17.96736,2.24949 -7.62166,1.70806 -22.06978,9.59818 -23.83829,13.01809 -0.84188,1.62801 -2.97869,3.81538 -4.74845,4.86081 -1.76978,1.04543 -3.45735,2.65563 -3.75018,3.57823 -0.29282,0.9226 -1.97793,2.53134 -3.74469,3.575 -1.76675,1.04365 -3.21228,2.35195 -3.21228,2.90734 0,0.55538 -0.76259,1.00979 -1.69464,1.00979 -0.93207,0 -1.48286,0.60204 -1.22398,1.33788 0.25886,0.73583 0.0544,2.46297 -0.45446,3.83808 -0.68151,1.8418 -0.57057,2.37627 0.42125,2.02958 0.74051,-0.25885 1.2132,-1.22722 1.05041,-2.15193 z m 10.46385,-12.43123 c 0,-1.02945 2.60298,-2.27644 4.63633,-2.22108 0.68768,0.0187 0.31542,0.74119 -0.82726,1.60546 -2.35851,1.78388 -3.80907,2.01833 -3.80907,0.61562 z m 6.42182,-5.20857 c 0,-1.23915 4.39367,-3.71269 5.18649,-2.91987 0.38324,0.38325 -0.23735,1.3799 -1.3791,2.21477 -2.29002,1.6745 -3.80739,1.95551 -3.80739,0.7051 z m 7.49213,-5.35151 c 0,-1.40055 4.31003,-3.57689 5.5572,-2.8061 0.79144,0.48913 0.52959,1.21687 -0.78326,2.17685 -2.15323,1.57448 -4.77394,1.91991 -4.77394,0.62925 z m 42.27699,-0.25747 c -0.40769,-0.65966 1.41596,-1.0703 4.7532,-1.0703 2.97808,0 5.41469,0.48164 5.41469,1.0703 0,0.58867 -2.13894,1.07031 -4.7532,1.07031 -2.61426,0 -5.05087,-0.48164 -5.41469,-1.07031 z m -10.16788,-0.98111 c 0,-1.30976 2.23539,-1.99561 4.54879,-1.39561 3.03658,0.78756 2.14203,2.37672 -1.33788,2.37672 -1.766,0 -3.21091,-0.4415 -3.21091,-0.98111 z m -23.54668,-3.32659 c 0,-1.43884 5.20912,-3.39876 6.65624,-2.50439 0.65655,0.40577 0.062,1.2846 -1.4277,2.11034 -3.09379,1.71487 -5.22854,1.87576 -5.22854,0.39405 z m 8.56243,-3.05932 c 0,-1.37568 6.24364,-3.41989 6.95077,-2.27574 0.69046,1.11717 -0.10617,1.62571 -4.00744,2.5582 -1.61883,0.38694 -2.94333,0.25983 -2.94333,-0.28246 z m 9.63273,-1.01629 c 0,-1.30743 2.64598,-2.31972 6.0634,-2.31972 1.6628,0 2.51087,0.50699 2.23791,1.33788 -0.51463,1.56656 -8.30131,2.48753 -8.30131,0.98184 z m 5.95286,31.10426 c -0.35877,-0.35877 -1.4837,0.21816 -2.49986,1.28205 -1.76623,1.84922 -1.73753,1.87792 0.65231,0.6523 1.37491,-0.70512 2.20631,-1.57559 1.84755,-1.93435 z m 59.33567,2.49436 c 0,-0.25959 -0.48164,-0.76965 -1.07031,-1.13347 -0.58867,-0.36382 -1.0703,-0.15143 -1.0703,0.47198 0,0.62341 0.48163,1.13347 1.0703,1.13347 0.58867,0 1.07031,-0.21239 1.07031,-0.47198 z m -39.60124,-6.95697 c 0,-2.9086 -0.49293,-5.593 -1.09539,-5.96535 -0.70913,-0.43826 -0.9922,1.42403 -0.80273,5.2811 0.36221,7.37387 1.89812,7.92754 1.89812,0.68425 z m 46.02306,4.21804 c 0,-0.58866 -0.9917,-1.0703 -2.20378,-1.0703 -1.21208,0 -1.9061,0.48164 -1.54229,1.0703 0.36382,0.58867 1.35552,1.07031 2.20378,1.07031 0.84826,0 1.54229,-0.48164 1.54229,-1.07031 z m -92.37471,-3.99327 c -0.27137,-1.04137 -0.51125,-0.44849 -0.53306,1.31751 -0.0218,1.766 0.20021,2.61803 0.4934,1.8934 0.29318,-0.72463 0.31102,-2.16954 0.0397,-3.21091 z m 80.32105,1.11364 c -0.99513,-0.99512 -2.10984,-1.50881 -2.47714,-1.14151 -1.05337,1.05338 0.56372,2.95084 2.51482,2.95084 1.6338,0 1.63086,-0.14078 -0.0377,-1.80933 z m -115.31248,-0.33128 c 0,-0.58867 -0.51007,-1.0703 -1.13348,-1.0703 -0.62341,0 -0.8358,0.48163 -0.47198,1.0703 0.36382,0.58867 0.87388,1.0703 1.13347,1.0703 0.2596,0 0.47199,-0.48163 0.47199,-1.0703 z m 39.91135,-1.0703 c -0.30788,-1.17734 -0.74442,-2.14061 -0.9701,-2.14061 -0.22567,0 -0.41032,0.96327 -0.41032,2.14061 0,1.17733 0.43654,2.1406 0.9701,2.1406 0.53356,0 0.71821,-0.96327 0.41032,-2.1406 z m 52.13477,1.1934 c 0,-1.74307 -5.50473,-4.67923 -6.64147,-3.54248 -0.70128,0.70127 -0.0273,1.60393 1.98745,2.66185 3.69396,1.93965 4.65402,2.12131 4.65402,0.88063 z m -63.14792,-1.1934 c 0,-0.58867 -0.48164,-1.07031 -1.07031,-1.07031 -0.58866,0 -1.0703,0.48164 -1.0703,1.07031 0,0.58866 0.48164,1.0703 1.0703,1.0703 0.58867,0 1.07031,-0.48164 1.07031,-1.0703 z m 33.17941,-1.15122 c 0,-0.50722 -0.72245,-0.64498 -1.60545,-0.30614 -0.883,0.33885 -1.60546,1.03107 -1.60546,1.53827 0,0.50722 0.72246,0.64498 1.60546,0.30614 0.883,-0.33885 1.60545,-1.03107 1.60545,-1.53827 z m 58.44305,-0.69952 c -1.08799,-1.08797 -1.98568,0.55002 -1.09302,1.99438 0.67432,1.09109 0.92643,1.09194 1.28897,0.004 0.24788,-0.74363 0.1597,-1.64305 -0.19595,-1.9987 z m 7.85208,-3.88569 c -0.25931,-0.23974 -1.66395,0.0143 -3.12145,0.56462 -2.151,0.81212 -2.35254,1.18441 -1.0703,1.97715 1.05185,0.65031 2.09485,0.46164 3.12144,-0.56462 0.84796,-0.84771 1.3296,-1.73742 1.07031,-1.97715 z m -9.48419,-0.53887 c 2.39965,-1.94313 2.40913,-2.0227 0.37094,-3.11351 -2.68606,-1.43753 -6.15413,0.81779 -5.17623,3.36614 0.86065,2.24284 1.78343,2.19432 4.80529,-0.25263 z m -110.32612,-3.35744 c 0,-0.58866 -0.96328,-1.0703 -2.14061,-1.0703 -1.17733,0 -2.14061,0.48164 -2.14061,1.0703 0,0.58867 0.96328,1.07031 2.14061,1.07031 1.17733,0 2.14061,-0.48164 2.14061,-1.07031 z m 99.53824,-0.36926 c 0,-0.2031 -1.08368,-1.28678 -2.40818,-2.40818 l -2.40819,-2.03892 2.03892,2.40818 c 1.91608,2.26309 2.77745,2.89543 2.77745,2.03892 z m 17.12486,-1.77134 c 0,-0.58867 -0.75088,-1.07031 -1.66862,-1.07031 -0.91775,0 -1.37096,0.48164 -1.00714,1.07031 0.36382,0.58866 1.1147,1.0703 1.66863,1.0703 0.55392,0 1.00713,-0.48164 1.00713,-1.0703 z m -14.33459,-1.693 c -0.35732,-0.93114 -0.64966,-1.92284 -0.64966,-2.20377 0,-0.28093 -0.46061,-0.22612 -1.02357,0.12182 -1.24258,0.76795 -0.24481,3.77495 1.25259,3.77495 0.58867,0 0.77795,-0.76185 0.42064,-1.693 z m -99.08433,-3.12337 c -0.0498,-1.60095 -4.59749,-1.29162 -5.14467,0.34993 -0.33071,0.99216 0.37828,1.31476 2.35227,1.0703 1.55413,-0.19246 2.81071,-0.83156 2.7924,-1.42023 z m 107.57626,0.46394 c 1.085,-1.75557 -0.19441,-2.39802 -3.24885,-1.63141 -1.52316,0.3823 -2.48043,1.16259 -2.12729,1.734 0.86116,1.39338 4.49443,1.32404 5.37614,-0.10264 z m -20.37978,-3.1397 c -0.36382,-0.58867 -1.14312,-1.0703 -1.73178,-1.0703 -0.58867,0 -0.77265,0.48163 -0.40883,1.0703 0.36382,0.58867 1.14312,1.0703 1.73179,1.0703 0.58866,0 0.77264,-0.48163 0.40882,-1.0703 z m 10.74969,-0.0178 c 2.37413,-0.90264 2.63723,-1.35859 1.54409,-2.67576 -1.55637,-1.87529 -2.15838,-1.92931 -5.85169,-0.52512 -2.35278,0.89453 -2.5754,1.31131 -1.40754,2.63505 1.68312,1.9078 2.08171,1.94726 5.71514,0.56583 z m -88.92949,-0.97547 c 0.74612,-1.20725 -3.24607,-2.62358 -4.75916,-1.68844 -0.59393,0.36707 -1.07988,1.12062 -1.07988,1.67455 0,1.30358 5.03457,1.31556 5.83904,0.0139 z m 7.8903,-6.61298 c -0.71803,-0.44377 -2.05391,-0.4239 -2.96864,0.0441 -0.91471,0.46804 -2.38557,1.10195 -3.26858,1.40868 -1.17827,0.4093 -0.8935,0.84342 1.07031,1.63154 2.05253,0.82372 3.11791,0.68356 4.57408,-0.60185 1.41109,-1.24558 1.56325,-1.88277 0.59283,-2.48252 z m 88.25422,0.87811 c -1.27992,-0.57111 -3.19658,-0.70143 -4.25926,-0.28961 -1.84554,0.71523 -1.84157,0.81544 0.0887,2.23632 1.55387,1.14378 2.53816,1.21071 4.25924,0.28961 l 2.23837,-1.19793 -2.32712,-1.03839 z m -15.38296,1.45734 c 1.28307,-0.81221 1.25296,-1.2153 -0.19929,-2.66754 -1.39874,-1.39875 -2.20779,-1.48429 -4.43607,-0.46901 -2.5187,1.14759 -2.58473,1.3485 -0.87102,2.64988 2.19681,1.66824 3.46302,1.78015 5.50638,0.48667 z m -78.03817,-4.50701 c 0,-0.82001 -6.37125,-0.0582 -7.46113,0.89213 -0.27729,0.24179 0.16,0.85008 0.97174,1.35176 1.56538,0.96746 6.48939,-0.73516 6.48939,-2.24389 z m 87.33089,-0.3901 c 1.58796,-1.47167 2.36365,-2.67576 1.72377,-2.67576 -0.63988,0 -1.476,0.50575 -1.85804,1.12389 -0.43455,0.70313 -2.00624,0.12346 -4.19809,-1.54834 -1.92692,-1.46975 -4.77342,-2.99098 -6.32554,-3.38054 -3.01088,-0.75568 -3.67744,-2.09329 -1.48416,-2.9783 0.73584,-0.29691 0.12924,-0.57787 -1.34799,-0.62434 -1.59394,-0.0501 -3.22936,0.78576 -4.02272,2.05611 -0.73525,1.17733 -1.87956,2.14061 -2.5429,2.14061 -0.66334,0 -2.26061,1.13785 -3.54947,2.52856 l -2.34338,2.52856 3.49359,1.2633 c 3.1639,1.14408 4.05528,0.94631 9.44521,-2.09558 l 5.95161,-3.35888 0,2.56387 c 0,2.48612 1.73755,5.13259 3.36983,5.13259 0.4406,0 2.10033,-1.20409 3.68828,-2.67575 z m -17.76115,-3.74607 c -1.37202,-0.88667 -1.33312,-1.0399 0.26757,-1.05391 1.03017,-0.009 1.87304,0.46525 1.87304,1.05391 0,1.30536 -0.12072,1.30536 -2.14061,0 z m -51.72958,2.80101 c 4.66224,-1.64493 10.53235,-2.63595 20.15562,-3.40275 4.04507,-0.32231 7.49512,-1.29597 9.32182,-2.63074 3.49407,-2.55313 4.6936,-2.65237 5.53566,-0.45799 0.35057,0.91357 0.2587,1.42699 -0.20417,1.14092 -0.46286,-0.28606 -1.49979,-0.11331 -2.30429,0.38389 -1.0396,0.64252 -0.20451,1.28097 2.88706,2.20723 3.49875,1.04825 4.97659,1.02576 7.55365,-0.11495 1.76213,-0.78 2.98582,-1.98643 2.7193,-2.68095 -0.26651,-0.69453 0.74825,-1.5722 2.25503,-1.95037 3.24266,-0.81386 3.66676,-2.78742 0.59899,-2.78742 -1.17734,0 -2.14061,-0.42486 -2.14061,-0.94414 0,-0.51927 1.91508,-0.97056 4.25574,-1.00286 2.34066,-0.0323 4.97044,-0.4587 5.84396,-0.94754 2.75745,-1.54316 -14.75471,-0.15554 -17.80625,1.41091 -5.56918,2.85884 -7.29256,1.11239 -1.91942,-1.94508 4.10205,-2.33418 4.10397,-3.82475 0.004,-3.22303 -1.75998,0.25832 -2.96685,0.84689 -2.6819,1.30795 0.81846,1.32428 -2.29717,2.08812 -3.52188,0.86341 -0.75605,-0.75605 -2.303,-0.70589 -4.92587,0.15973 -3.78995,1.25077 -6.00625,0.84706 -6.00625,-1.09404 0,-0.55393 0.91175,-1.00714 2.02609,-1.00714 1.11436,0 2.30333,-0.72245 2.64218,-1.60545 0.33883,-0.883 0.14954,-1.60546 -0.42064,-1.60546 -0.5702,0 -1.03672,0.37213 -1.03672,0.82693 0,0.45482 -2.6032,1.43216 -5.7849,2.17187 -3.18169,0.73972 -7.15519,2.01553 -8.83,2.83514 -4.30089,2.10473 -7.02752,2.41277 -7.57206,0.85546 -0.25729,-0.73583 0.29479,-1.33788 1.22685,-1.33788 0.93205,0 1.69464,-0.49858 1.69464,-1.10796 0,-1.35182 -2.25437,-0.1966 -7.49212,3.83928 -2.90848,2.24108 -3.21642,2.76176 -1.37724,2.32868 1.34309,-0.31626 2.90608,0.0896 3.60955,0.93716 0.7538,0.90829 0.81478,1.49497 0.15537,1.49497 -0.59693,0 -1.38448,1.19191 -1.7501,2.6487 -0.36563,1.45679 -1.98317,3.36405 -3.59452,4.23836 l -2.92973,1.58966 2.80876,0.0428 c 1.54482,0.0236 4.69669,-0.62324 7.00412,-1.43735 z m 18.55016,-5.97427 c 0,-1.01042 3.38412,-3.24856 4.9119,-3.24856 0.42426,0 -0.1004,0.96327 -1.16583,2.14061 -2.07547,2.29337 -3.74607,2.78748 -3.74607,1.10795 z m -8.56243,-3.24856 c 0,-0.58867 0.75089,-1.0703 1.66863,-1.0703 0.91774,0 1.37095,0.48163 1.00713,1.0703 -0.36381,0.58867 -1.1147,1.0703 -1.66862,1.0703 -0.55393,0 -1.00714,-0.48163 -1.00714,-1.0703 z m -34.48382,8.72976 c 0.95683,-0.60715 1.08596,-1.64167 0.42722,-3.42244 l -0.94415,-2.55225 -1.22994,2.29817 c -2.14421,4.00649 -1.36327,5.65007 1.74687,3.67652 z m 16.71901,-2.31016 c 0.56782,-0.56782 0.73934,-1.32547 0.38116,-1.68364 -0.89379,-0.89379 -8.30363,1.87697 -8.30363,3.10497 0,1.19436 6.467,0.0341 7.92247,-1.42133 z M 511.39328,372.02 c 0,-0.58867 -0.84286,-1.06293 -1.87303,-1.05392 -1.60069,0.014 -1.6396,0.16725 -0.26757,1.05392 2.01988,1.30535 2.1406,1.30535 2.1406,0 z m 1.47812,-5.37005 c 1.81152,-0.73172 1.3701,-0.92974 -2.1933,-0.98393 -5.02764,-0.0764 -8.09713,0.80255 -7.30097,2.09076 0.58842,0.95208 5.94226,0.32795 9.49427,-1.10683 z m -1.72368,-6.1824 c 0.33535,-1.0203 -0.34684,-1.19349 -2.59302,-0.65829 -5.43644,1.29533 -6.61838,2.62813 -2.06052,2.32348 2.30917,-0.15434 4.40326,-0.90368 4.65354,-1.66519 z m -79.41989,-2.47827 c 0.3996,-0.64657 -0.53685,-0.34776 -2.081,0.664 -1.54414,1.01176 -2.80754,2.04194 -2.80754,2.28928 0,0.77424 4.12492,-1.71773 4.88854,-2.95328 z m 21.39691,-0.36514 c 2.0044,-1.49754 1.99217,-1.5307 -0.34726,-0.94112 -1.33367,0.33612 -2.6866,1.03462 -3.0065,1.55223 -0.90529,1.46476 1.05282,1.10796 3.35376,-0.61111 z m 52.72802,-0.16271 c 2.95101,-0.45808 3.33898,-0.81492 2.27713,-2.09437 -0.70396,-0.84823 -1.94341,-1.54222 -2.75432,-1.54222 -0.81093,0 -1.47441,-0.42547 -1.47441,-0.94548 0,-0.52001 -1.01402,-1.21064 -2.25338,-1.53474 -2.82925,-0.73987 -2.1189,-3.28989 1.04589,-3.75457 1.89468,-0.27819 2.22511,-0.81567 1.64503,-2.67576 -1.21558,-3.89791 -2.96724,-5.52813 -6.18676,-5.75787 -3.79543,-0.27083 -4.52515,-0.92883 -3.02916,-2.7314 1.76979,-2.13247 2.42958,-7.44499 1.12054,-9.0223 -0.64168,-0.77318 -2.28339,-1.40578 -3.64824,-1.40578 -3.19709,0 -4.49618,-2.10634 -2.29277,-3.71751 1.5,-1.09682 1.54027,-1.84011 0.32467,-5.99187 l -1.38775,-4.73972 -7.65328,-0.98483 c -4.20931,-0.54166 -7.6533,-1.35423 -7.6533,-1.80574 0,-0.91816 -4.20522,-0.42909 -16.05455,1.8672 -5.78572,1.12122 -8.54367,2.21452 -9.87651,3.91524 -2.48814,3.17491 -2.36062,4.16487 0.48497,3.76481 1.52859,-0.21491 2.50631,0.28982 2.72936,1.409 0.24755,1.24209 -0.6905,1.93861 -3.26004,2.42065 -2.24424,0.42103 -4.48915,1.86915 -5.94027,3.8319 -1.28297,1.73531 -2.33267,3.34503 -2.33267,3.57718 0,0.23214 3.13063,0.21042 6.95697,-0.0483 6.38004,-0.43135 6.95697,-0.29447 6.95697,1.65045 0,1.81081 -0.6509,2.08759 -4.45289,1.89347 -7.74912,-0.39565 -11.79419,0.72021 -12.83743,3.54131 -0.76787,2.07644 -0.67618,2.33271 0.48873,1.36592 0.78866,-0.65453 2.84471,-1.17318 4.56898,-1.15254 1.72427,0.0207 4.70035,-0.28748 6.61352,-0.68469 2.70472,-0.56153 3.47849,-0.36351 3.47849,0.89024 0,1.98364 -2.24539,2.91175 -7.04452,2.91175 -2.01218,0 -3.65852,0.46652 -3.65852,1.03672 0,0.57018 -0.66036,0.7833 -1.46745,0.47358 -0.8071,-0.3097 -2.21761,0.18705 -3.13446,1.1039 -0.91685,0.91686 -2.13152,1.66701 -2.69925,1.66701 -0.56773,0 -1.31177,0.72841 -1.6534,1.6187 -0.49507,1.29012 -0.0295,1.47932 2.29367,0.93211 1.60316,-0.37761 3.37238,-1.10603 3.93162,-1.61869 0.55923,-0.51267 2.58353,-0.93212 4.49843,-0.93212 1.9149,0 4.72145,-0.56489 6.23679,-1.25532 2.1075,-0.96025 3.05024,-0.96025 4.01049,0 1.87946,1.87946 -0.37494,3.5812 -4.91471,3.70988 -2.10312,0.0596 -4.06464,0.73583 -4.35891,1.50268 -0.29426,0.76686 -1.96664,1.39428 -3.71637,1.39428 -1.74973,0 -3.51229,0.53548 -3.91677,1.18996 -0.95665,1.5479 1.74904,3.25836 3.82002,2.41491 7.08743,-2.8865 12.21458,-4.5288 12.87137,-4.12289 0.43007,0.2658 1.05775,-0.89576 1.39485,-2.58126 0.79396,-3.96975 3.4156,-6.53345 6.68115,-6.53345 3.73331,0 3.24547,2.77625 -0.73145,4.16261 -2.39697,0.83559 -3.14713,1.63964 -2.67575,2.868 0.36024,0.93879 0.65499,2.15831 0.65499,2.71005 0,1.24388 5.09379,0.13089 8.17356,-1.78592 3.31326,-2.06211 8.50689,-1.42705 8.08612,0.98876 -0.29661,1.70299 0.48904,1.85448 7.7597,1.49622 6.32535,-0.31168 8.08973,-0.0792 8.08973,1.06582 0,0.80543 -0.36123,1.25546 -0.80273,1.00005 -0.4415,-0.25542 -1.766,-0.0518 -2.94333,0.4525 -1.39693,0.59835 0.64818,0.84409 5.88667,0.70734 4.415,-0.11526 8.63718,0.16761 9.38261,0.62859 2.68108,1.65798 0.002,2.83114 -6.50245,2.84722 -3.64442,0.009 -7.26375,0.4206 -8.04294,0.91462 -1.42638,0.90435 12.14562,0.54124 18.88772,-0.50532 z m -13.51993,-10.82196 c -1.62242,-0.30996 -2.34314,-1.08678 -2.0991,-2.26243 0.2758,-1.32861 1.32714,-1.7173 4.07621,-1.507 5.23834,0.40072 6.43467,1.00532 5.7126,2.88701 -0.61607,1.60543 -2.67098,1.84124 -7.68971,0.88242 z m -27.33898,-4.02498 c -0.36181,-0.94289 -0.0639,-1.89669 0.662,-2.11957 4.75202,-1.45906 7.07503,-1.49694 8.20631,-0.13382 1.54674,1.86371 0.24563,2.82814 -4.71785,3.49704 -2.52206,0.33987 -3.67541,-0.005 -4.15046,-1.24365 z m 13.35047,0.61058 c -2.20064,-1.39386 -0.42988,-3.31418 3.05609,-3.31418 4.14312,0 6.44619,0.99689 6.44619,2.79027 0,1.69517 -7.04025,2.08333 -9.50228,0.52391 z m 8.1644,-8.4477 c -1.03016,-0.20623 -1.87303,-0.80688 -1.87303,-1.33478 0,-0.5279 -1.78756,-0.85381 -3.97236,-0.72425 -3.13745,0.18606 -4.0594,-0.18738 -4.38652,-1.77678 -0.22779,-1.1068 0.14599,-2.35855 0.83063,-2.78169 2.11204,-1.30531 6.23458,0.0782 6.81195,2.2861 0.46503,1.77824 0.86086,1.90065 2.61127,0.8075 2.48983,-1.55492 7.73777,-0.4702 7.73777,1.59935 0,1.50005 -4.41294,2.59453 -7.75971,1.92455 z m -30.77123,-2.14455 c 0,-1.75371 2.65992,-3.42497 5.45107,-3.42497 3.63283,0 4.92661,2.76047 1.69942,3.62599 -3.36375,0.90213 -7.15049,0.79568 -7.15049,-0.20102 z m 10.70304,-1.63719 c 0,-1.7118 2.21289,-2.85808 5.51753,-2.85808 1.45169,0 2.01838,0.59741 1.77673,1.87303 -0.45945,2.42539 -7.29426,3.3484 -7.29426,0.98505 z m -13.91395,-9.84155 c 0,-2.25676 3.70876,-3.43845 10.97061,-3.49548 4.38692,-0.0345 6.15425,0.3546 6.15425,1.35474 0,2.5668 -5.84848,4.2026 -8.34021,2.33271 -0.91549,-0.687 -1.80223,-0.61904 -2.62225,0.20097 -1.82679,1.8268 -6.1624,1.55034 -6.1624,-0.39294 z m 19.26547,-1.10415 c 0,-1.9829 2.14806,-2.88696 5.76821,-2.42766 3.61474,0.45861 2.23675,2.48267 -2.28973,3.36324 -2.68448,0.52223 -3.47848,0.30868 -3.47848,-0.93558 z m 10.34627,0.95226 c -1.328,-1.32799 -0.72357,-2.56263 1.69464,-3.46153 3.16021,-1.17472 5.08395,-0.36157 5.08395,2.14897 0,1.51119 -0.77066,2.0261 -3.03253,2.0261 -1.66789,0 -3.35362,-0.3211 -3.74606,-0.71354 z m -8.49554,34.31661 c -0.35565,-0.35565 -1.27879,-0.39367 -2.05141,-0.0845 -0.85382,0.34166 -0.60021,0.59528 0.64664,0.64664 1.12827,0.0464 1.76043,-0.2065 1.40477,-0.56215 z m -43.14497,-1.07332 c 1.74876,-0.67106 2.35928,-2.56125 0.82726,-2.56125 -0.47615,0 -1.80065,0.70714 -2.94333,1.57142 -2.12102,1.60426 -0.93311,2.15991 2.11607,0.98983 z m 31.12635,-0.42064 c 0.36382,-0.58867 0.15143,-1.07031 -0.47198,-1.07031 -0.62341,0 -1.13347,0.48164 -1.13347,1.07031 0,0.58866 0.21239,1.0703 0.47198,1.0703 0.25959,0 0.76965,-0.48164 1.13347,-1.0703 z m 19.80062,0.18536 c 0,-0.48671 -1.44491,-0.67287 -3.21091,-0.41367 -1.766,0.25919 -3.21091,0.65741 -3.21091,0.88494 0,0.22751 1.44491,0.41367 3.21091,0.41367 1.766,0 3.21091,-0.39822 3.21091,-0.88494 z m -15.85734,-48.49554 c 2.6545,-1.36032 7.03551,-1.12347 7.65939,0.41409 0.42527,1.04807 0.75913,1.03018 1.54126,-0.0825 0.79849,-1.13603 1.90798,-1.17552 5.54104,-0.19724 2.49845,0.67276 4.79967,0.96617 5.11381,0.65203 1.29235,-1.29234 -2.26245,-7.12248 -4.71864,-7.73895 -1.42457,-0.35754 -2.83225,-0.40795 -3.12818,-0.11201 -0.29594,0.29594 -2.32047,0.14676 -4.49895,-0.3315 -4.43669,-0.97403 -16.32735,0.99666 -16.45522,2.7272 -0.0435,0.58816 -1.22351,2.13006 -2.62234,3.42646 -1.39884,1.29639 -2.54333,2.6251 -2.54333,2.95268 0,0.847 11.94634,-0.60085 14.11116,-1.71021 z m 8.49631,-12.04548 7.08806,0.1165 -1.67977,-2.92683 c -1.50359,-2.61987 -2.19087,-2.88965 -6.55291,-2.5723 -2.68023,0.195 -6.73545,0.37596 -9.01161,0.40215 -3.60143,0.0414 -4.06583,0.3254 -3.57869,2.18822 0.36381,1.39124 0.0329,2.14061 -0.94548,2.14061 -0.82789,0 -1.50525,0.52396 -1.50525,1.16438 0,0.797 1.43522,0.88143 4.54879,0.26757 2.50184,-0.49325 7.73842,-0.84438 11.63686,-0.7803 z m -5.48261,-10.82986 c 0,-0.75136 -0.68725,-1.62983 -1.52721,-1.95216 -1.76136,-0.67589 -4.31495,1.90817 -3.38023,3.42058 0.87222,1.41129 4.90744,0.20387 4.90744,-1.46842 z m 6.95697,-0.43746 c 0,-1.69852 -3.42832,-2.53768 -4.34013,-1.06234 -0.94219,1.52448 0.60684,3.27007 2.56689,2.8926 0.97529,-0.18782 1.77324,-1.01144 1.77324,-1.83026 z m -3.50709,-7.84707 c -0.64723,-2.48094 -2.62008,-2.37726 -4.24397,0.22302 -1.19097,1.90703 -1.03661,2.07594 1.71181,1.87303 2.29793,-0.16966 2.90388,-0.67123 2.53216,-2.09605 z M 381.88654,480.1928 c 0,-1.24884 4.19778,-2.65293 5.1336,-1.71711 0.80215,0.80215 -1.83159,2.67484 -3.79572,2.6989 -0.73584,0.009 -1.33788,-0.4328 -1.33788,-0.98179 z m 35.5554,-1.03906 c 0.45168,-2.3454 5.51481,-2.26527 5.96925,0.0945 0.26827,1.39294 -0.40884,1.7818 -2.97552,1.70882 -2.43829,-0.0694 -3.23522,-0.54936 -2.99373,-1.80329 z m 15.94962,1.06217 c -2.06155,-1.29453 -0.51287,-3.30615 2.54531,-3.30615 2.24888,0 4.60257,1.71587 3.58567,2.614 -1.21054,1.06916 -4.87226,1.48254 -6.13098,0.69215 z m 67.29869,-1.16395 c 0,-2.21277 2.05346,-3.2125 6.59855,-3.2125 4.54968,0 3.33464,2.19276 -2.10501,3.79889 -4.09678,1.20964 -4.49354,1.15787 -4.49354,-0.58639 z m -94.18673,0.0188 c 0,-1.34481 4.84984,-2.58253 6.95458,-1.77486 3.10733,1.19235 1.56244,2.82473 -2.67336,2.82473 -2.35467,0 -4.28122,-0.47246 -4.28122,-1.04991 z m 38.17417,0.33638 c -1.53437,-1.5344 -0.57135,-2.49742 2.49737,-2.49742 2.14061,0 3.21091,0.53515 3.21091,1.60546 0,1.61997 -4.30723,2.29297 -5.70828,0.89191 z m 9.44875,-0.36582 c -0.36689,-0.59365 0.44755,-1.50078 1.80987,-2.01586 2.92601,-1.10627 3.50076,-0.79232 2.64275,1.4436 -0.71439,1.86171 -3.43926,2.21191 -4.45262,0.57226 z m 8.26928,-0.16501 c 0.60548,-1.81649 4.04481,-2.04301 4.04481,-0.26643 0,0.83092 -1.00341,1.51075 -2.2298,1.51075 -1.22639,0 -2.04314,-0.55996 -1.81501,-1.24436 z m 7.96926,0.53083 c -1.17368,-1.17368 -0.81669,-2.22877 0.9885,-2.92149 2.2717,-0.87173 3.69725,0.12456 2.95307,2.06385 -0.62796,1.63646 -2.70978,2.08944 -3.94157,0.85764 z m 8.91919,-0.76719 c 0,-0.81438 1.2041,-1.71086 2.67576,-1.99219 2.99656,-0.57282 3.80213,1.74132 0.98277,2.82321 -2.63373,1.01065 -3.65853,0.77787 -3.65853,-0.83102 z m 10.24153,0.52954 c -0.40138,-0.64945 0.81719,-1.78921 2.82076,-2.63833 2.96419,-1.25624 3.77359,-1.26399 5.06917,-0.0485 1.93804,1.81822 1.53001,2.20287 -3.29221,3.10351 -2.38268,0.44501 -4.165,0.28349 -4.59772,-0.41666 z m 23.54799,-1.06819 c -0.90058,-1.45717 1.68494,-2.93073 5.54414,-3.15975 4.59488,-0.27269 4.70373,2.52585 0.13379,3.43984 -4.38667,0.87734 -4.98071,0.84803 -5.67793,-0.28009 z m -87.63589,-0.96885 c -2.13984,-0.26842 -2.90383,-0.89503 -2.64937,-2.17299 0.41531,-2.08581 4.80425,-1.90857 7.07719,0.28579 1.78244,1.72082 0.0687,2.45124 -4.42782,1.8872 z m 98.79913,-1.22986 c 0,-2.61091 0.60883,-2.96755 5.8599,-3.43251 3.38022,-0.29931 4.33107,0.009 4.62728,1.49631 0.27589,1.38605 -0.32684,1.87303 -2.31826,1.87303 -1.48009,0 -2.98874,0.48163 -3.35255,1.0703 -1.21114,1.95966 -4.81637,1.20578 -4.81637,-1.00713 z m -110.53137,-2.30211 c -2.56253,-1.49184 -1.3322,-3.11258 2.36281,-3.11258 3.03395,0 6.00827,2.26528 4.69658,3.57697 -1.0467,1.0467 -4.89911,0.79328 -7.05939,-0.46439 z m 28.17403,-0.36931 c -0.98294,-1.18435 -0.76267,-1.64414 1.06564,-2.22443 3.20472,-1.01713 5.09689,1.08242 2.31651,2.57043 -1.62369,0.86897 -2.44342,0.78511 -3.38215,-0.346 z m 8.50638,-0.0675 c 0,-1.07031 1.07031,-1.60546 3.21091,-1.60546 2.14061,0 3.21092,0.53515 3.21092,1.60546 0,1.0703 -1.07031,1.60545 -3.21092,1.60545 -2.1406,0 -3.21091,-0.53515 -3.21091,-1.60545 z m 22.91439,0.13281 c -0.88254,-2.29988 -0.53629,-2.62837 3.65368,-3.46636 2.70434,-0.54088 3.40044,-0.32406 3.40044,1.05915 0,0.9613 -0.86174,1.73925 -1.92655,1.73925 -1.0596,0 -2.48872,0.56217 -3.17583,1.24928 -0.95216,0.95216 -1.41633,0.81391 -1.95174,-0.58132 z m 11.42247,0.0613 c -1.63077,-1.63075 -1.43734,-2.8699 0.44801,-2.8699 0.883,0 1.60546,0.48163 1.60546,1.0703 0,0.58867 0.98084,0.0895 2.17964,-1.10934 2.22008,-2.22007 4.24218,-2.00186 4.24218,0.45778 0,1.93477 -6.97456,3.95192 -8.47529,2.45118 z m -22.56352,-0.60447 c 0,-1.14536 4.29182,-2.38522 5.55472,-1.60469 0.49612,0.30661 0.62493,1.00583 0.28624,1.55382 -0.78366,1.268 -5.84096,1.31206 -5.84096,0.0508 z m -59.52372,-1.66192 c -0.35327,-0.9206 -1.55404,-1.67382 -2.6684,-1.67382 -1.32424,0 -2.0261,-0.75457 -2.0261,-2.17826 0,-1.93241 0.27181,-2.03084 2.40819,-0.87213 1.3245,0.71836 4.09391,1.58635 6.15424,1.92883 4.90033,0.8146 5.08003,3.66877 0.26021,4.13326 -2.40075,0.23137 -3.68577,-0.18509 -4.12814,-1.33788 z m 30.8931,0.71457 c -1.3245,-0.21816 -2.40818,-0.78862 -2.40818,-1.26769 0,-1.32248 3.85155,-2.04773 5.49166,-1.03408 2.01903,1.24783 -0.06,2.79977 -3.08348,2.30177 z m 62.00078,-0.9829 c 0.58913,-3.05912 10.5123,-4.57747 10.5123,-1.60849 0,0.91375 -7.00693,3.41392 -9.56781,3.41392 -0.71071,0 -1.13572,-0.81244 -0.94449,-1.80543 z m -80.0963,-5.95886 c -0.97076,-1.57074 1.30545,-3.15278 3.9743,-2.76224 1.34628,0.197 2.62681,0.9025 2.84562,1.56777 0.48142,1.46369 -5.95664,2.59127 -6.81992,1.19447 z m -9.89622,-3.34936 c -0.93392,-1.12531 -0.90117,-1.60489 0.13653,-1.99914 2.4748,-0.94025 8.32217,0.46192 8.32217,1.99563 0,1.979 -6.81683,1.98183 -8.4587,0.003 z m 28.79447,-2.00394 c -6.69334,-0.87074 -9.694,-2.16262 -8.28825,-3.56837 0.36664,-0.36665 4.42844,-0.16721 9.02623,0.4432 4.59778,0.61039 14.38006,0.89537 21.7384,0.63329 7.35833,-0.2621 15.18493,-0.45005 17.39243,-0.41768 2.2075,0.0323 4.01364,-0.36426 4.01364,-0.88138 0,-0.51713 1.70944,-1.00451 3.79873,-1.08306 2.08931,-0.0786 4.37708,-0.51534 5.08394,-0.97064 0.70688,-0.45532 4.65667,-1.68338 8.77734,-2.72902 8.35986,-2.12136 8.87807,-2.27493 11.45451,-3.39452 1.00198,-0.43541 2.34758,-0.4667 2.99022,-0.0696 0.64265,0.39717 1.74939,0.26891 2.45943,-0.28502 2.27802,-1.77716 8.17476,-3.37241 8.78944,-2.37782 0.73195,1.18431 -2.88154,3.20069 -5.73588,3.20069 -1.16833,0 -3.72859,0.80394 -5.68946,1.78655 -6.83993,3.42752 -7.40457,3.63364 -8.35117,3.04862 -0.52404,-0.32389 -1.25534,-0.0993 -1.62509,0.49889 -0.36974,0.59827 -1.74077,1.08776 -3.04671,1.08776 -1.30594,0 -3.4788,0.77352 -4.82857,1.71894 -1.34977,0.94541 -3.98553,1.83949 -5.85725,1.98684 -1.87171,0.14734 -8.72167,0.8183 -15.22212,1.49103 -12.89698,1.33467 -26.03229,1.29237 -36.87981,-0.11879 z m -15.34102,-3.65096 c -1.39003,-1.39004 -0.67472,-2.04501 2.49737,-2.28671 3.39687,-0.25884 4.37415,1.25455 1.51792,2.35059 -2.17631,0.83513 -3.13148,0.81993 -4.01529,-0.0639 z m -9.97267,-2.76495 c -1.07507,-1.7262 0.82069,-2.64762 4.07708,-1.98161 5.00733,1.0241 5.28615,3.40165 0.35868,3.05846 -2.1647,-0.15077 -4.1608,-0.63535 -4.43576,-1.07685 z m 34.67885,0.53595 c -2.83181,-0.64305 -2.24336,-2.40898 0.80272,-2.40898 1.47167,0 2.67576,0.45321 2.67576,1.00714 0,1.39484 -1.26473,1.90454 -3.47848,1.40184 z m 6.68939,-0.1436 c 0,-1.04752 4.99089,-2.26924 5.83242,-1.42772 0.29216,0.29218 0.27506,0.94567 -0.038,1.45223 -0.75042,1.21421 -5.79441,1.19287 -5.79441,-0.0245 z m 7.49213,-0.10435 c 0,-1.41587 4.898,-2.56763 6.55753,-1.54198 0.95991,0.59326 0.75441,1.04503 -0.74191,1.631 -2.98867,1.17037 -5.81562,1.1271 -5.81562,-0.089 z m 11.49266,0.23623 c -1.03738,-0.23025 -1.611,-0.86381 -1.27472,-1.40792 0.78429,-1.269 5.83661,-1.298 5.83661,-0.0335 0,1.26352 -2.21297,1.96276 -4.56189,1.44143 z m -35.35656,-2.50813 c 0.84656,-0.84656 1.74111,-0.85578 3.1574,-0.0325 1.73242,1.00698 1.58671,1.15268 -1.18121,1.18121 -2.30258,0.0238 -2.8376,-0.28725 -1.97619,-1.14866 z m 43.12937,0.11087 c 0,-0.58867 1.44491,-1.0703 3.21091,-1.0703 1.766,0 3.21091,0.48163 3.21091,1.0703 0,0.58867 -1.44491,1.07031 -3.21091,1.07031 -1.766,0 -3.21091,-0.48164 -3.21091,-1.07031 z m -50.66104,-1.78384 c -1.46067,-1.46066 -0.63948,-2.63536 1.6108,-2.30424 2.94131,0.4328 3.92992,3.01778 1.15415,3.01778 -1.12829,0 -2.37251,-0.32109 -2.76495,-0.71354 z m 102.52675,-1.49828 c -0.38801,-0.62783 -0.43721,-1.40979 -0.10932,-1.73768 0.88048,-0.88047 3.8994,0.49397 3.8994,1.7753 0,1.45267 -2.88673,1.42402 -3.79008,-0.0376 z m -110.46484,-1.03242 c -1.3245,-0.53239 -2.40818,-1.43875 -2.40818,-2.01412 0,-0.57539 -2.28778,-1.19295 -5.08395,-1.37238 -2.79617,-0.17941 -4.94727,-0.80785 -4.78024,-1.39652 0.40161,-1.4154 8.79651,-1.19077 9.69734,0.2595 0.3861,0.62158 1.90117,1.29912 3.36682,1.50562 1.48996,0.20994 2.82222,1.20127 3.02182,2.24852 0.39479,2.07139 -0.2505,2.20157 -3.81361,0.76938 z m 11.77334,-2.94182 c -2.50833,-0.40062 -3.40993,-2.38863 -1.0703,-2.35996 1.61275,0.0198 4.69269,1.85738 3.98264,2.37621 -0.27729,0.20261 -1.58784,0.1953 -2.91234,-0.0163 z m 92.84885,-0.0208 c 0,-0.77296 6.06778,-3.42593 7.83569,-3.42593 1.86522,0 0.45008,3.0354 -1.68145,3.60662 -3.38757,0.90784 -6.15424,0.8266 -6.15424,-0.18069 z m -74.11854,-3.06446 c 0.73584,-0.29692 1.93993,-0.29692 2.67576,0 0.73584,0.29691 0.13379,0.53985 -1.33788,0.53985 -1.47166,0 -2.07371,-0.24294 -1.33788,-0.53985 z m 7.75971,-0.36147 c 0,-0.58866 1.20409,-1.0703 2.67575,-1.0703 1.47167,0 2.67576,0.48164 2.67576,1.0703 0,0.58867 -1.20409,1.07031 -2.67576,1.07031 -1.47166,0 -2.67575,-0.48164 -2.67575,-1.07031 z m 8.56243,-0.10018 c 0,-0.53358 0.96327,-0.97012 2.1406,-0.97012 1.17734,0 2.14061,0.18465 2.14061,0.41032 0,0.22568 -0.96327,0.66222 -2.14061,0.9701 -1.17733,0.30789 -2.1406,0.12324 -2.1406,-0.41032 z m -46.02306,-0.97012 c 0,-0.58867 0.93484,-1.0703 2.07743,-1.0703 1.1426,0 2.37512,0.48163 2.73893,1.0703 0.37517,0.60703 -0.52404,1.0703 -2.07744,1.0703 -1.5064,0 -2.73892,-0.48163 -2.73892,-1.0703 z m 53.51518,0 c 0,-0.58867 0.96327,-1.0703 2.14061,-1.0703 1.17733,0 2.14061,0.48163 2.14061,1.0703 0,0.58867 -0.96328,1.0703 -2.14061,1.0703 -1.17734,0 -2.14061,-0.48163 -2.14061,-1.0703 z m -41.88199,-1.15692 c -2.62523,-1.62248 0.39381,-3.12894 3.21539,-1.60444 2.42757,1.31162 2.44468,1.39735 0.38605,1.9357 -1.18471,0.30981 -2.80537,0.16074 -3.60144,-0.33126 z m 48.83897,0.0866 c 0.36381,-0.58866 1.71674,-1.08087 3.0065,-1.0938 1.28976,-0.0129 4.44456,-0.97621 7.01068,-2.14061 5.35546,-2.4301 5.50222,-2.46007 5.50222,-1.1237 0,1.18987 -10.94479,5.42842 -14.01727,5.42842 -1.18999,0 -1.86595,-0.48164 -1.50213,-1.07031 z m -66.89399,-2.14161 c -0.883,-0.57009 -1.36463,-1.08404 -1.0703,-1.1421 3.20368,-0.63206 5.34445,-0.44115 5.04736,0.45012 -0.53197,1.59594 -2.14281,1.87621 -3.97706,0.69198 z"
         style="fill:#000000" />
      <g
         transform="translate(-4.7936989,0)"
         id="g8067">
        <path
           sodipodi:type="arc"
           style="fill:#000000;fill-opacity:1;stroke:#000000;stroke-width:3.50160718;stroke-linecap:round;stroke-linejoin:round;stroke-miterlimit:4;stroke-opacity:1;stroke-dasharray:none;stroke-dashoffset:0;filter:url(#filter8055)"
           id="path5308"
           sodipodi:cx="285.5"
           sodipodi:cy="372.86218"
           sodipodi:rx="98.5"
           sodipodi:ry="98.5"
           d="m 384,372.86218 c 0,54.40005 -44.09995,98.5 -98.5,98.5 -54.40005,0 -98.5,-44.09995 -98.5,-98.5 0,-54.40005 44.09995,-98.5 98.5,-98.5 54.40005,0 98.5,44.09995 98.5,98.5 z"
           transform="matrix(1.0709368,0,0,1.0709368,-21.87988,-25.499908)" />
        <path
           transform="matrix(0.33673966,0,0,0.33673966,187.73341,248.25445)"
           d="m 384,372.86218 c 0,54.40005 -44.09995,98.5 -98.5,98.5 -54.40005,0 -98.5,-44.09995 -98.5,-98.5 0,-54.40005 44.09995,-98.5 98.5,-98.5 54.40005,0 98.5,44.09995 98.5,98.5 z"
           sodipodi:ry="98.5"
           sodipodi:rx="98.5"
           sodipodi:cy="372.86218"
           sodipodi:cx="285.5"
           id="path6078"
           style="fill:#ffffff;fill-opacity:1;stroke:#000000;stroke-width:11.13619995;stroke-linecap:round;stroke-linejoin:round;stroke-miterlimit:4;stroke-opacity:1;stroke-dasharray:none;stroke-dashoffset:0"
           sodipodi:type="arc" />
        <g
           id="g7239"
           transform="translate(-23.538588,5.53555)"
           style="stroke:#ffffff;stroke-width:0.625;stroke-miterlimit:4;stroke-dasharray:none">
          <rect
             transform="matrix(0.70710678,-0.70710678,0.70710678,0.70710678,0,0)"
             style="fill:#ffffff;fill-opacity:1;stroke:#ffffff;stroke-width:0.625;stroke-linecap:round;stroke-linejoin:round;stroke-miterlimit:4;stroke-opacity:1;stroke-dasharray:none;stroke-dashoffset:0"
             id="rect6680"
             width="17.75"
             height="9.25"
             x="-78.783234"
             y="540.13129"
             rx="3.7500002"
             ry="3.7500002" />
          <rect
             transform="matrix(-0.70710678,-0.70710678,0.70710678,-0.70710678,0,0)"
             ry="3.7500002"
             rx="3.7500002"
             y="-100.71031"
             x="-553.63129"
             height="9.25"
             width="17.75"
             id="rect6682"
             style="fill:#ffffff;fill-opacity:1;stroke:#ffffff;stroke-width:0.625;stroke-linecap:round;stroke-linejoin:round;stroke-miterlimit:4;stroke-opacity:1;stroke-dasharray:none;stroke-dashoffset:0" />
          <rect
             transform="matrix(0.70710678,-0.70710678,0.70710678,0.70710678,0,0)"
             style="fill:#ffffff;fill-opacity:1;stroke:#ffffff;stroke-width:0.625;stroke-linecap:round;stroke-linejoin:round;stroke-miterlimit:4;stroke-opacity:1;stroke-dasharray:none;stroke-dashoffset:0"
             id="rect6684"
             width="17.75"
             height="9.25"
             x="-26.42911"
             y="540.13129"
             rx="3.7500002"
             ry="3.7500002" />
          <rect
             transform="matrix(-0.70710678,-0.70710678,0.70710678,-0.70710678,0,0)"
             ry="3.7500002"
             rx="3.7500002"
             y="-48.356171"
             x="-553.63129"
             height="9.25"
             width="17.75"
             id="rect6686"
             style="fill:#ffffff;fill-opacity:1;stroke:#ffffff;stroke-width:0.625;stroke-linecap:round;stroke-linejoin:round;stroke-miterlimit:4;stroke-opacity:1;stroke-dasharray:none;stroke-dashoffset:0" />
          <rect
             style="fill:#ffffff;fill-opacity:1;stroke:#ffffff;stroke-width:0.625;stroke-linecap:round;stroke-linejoin:round;stroke-miterlimit:4;stroke-opacity:1;stroke-dasharray:none;stroke-dashoffset:0"
             id="rect6690"
             width="17.75"
             height="9.25"
             x="-553.63129"
             y="3.9979537"
             rx="3.7500002"
             ry="3.7500002"
             transform="matrix(-0.70710678,-0.70710678,0.70710678,-0.70710678,0,0)" />
          <rect
             transform="matrix(0.70710678,-0.70710678,0.70710678,0.70710678,0,0)"
             style="fill:#ffffff;fill-opacity:1;stroke:#ffffff;stroke-width:0.625;stroke-linecap:round;stroke-linejoin:round;stroke-miterlimit:4;stroke-opacity:1;stroke-dasharray:none;stroke-dashoffset:0"
             id="rect6696"
             width="17.75"
             height="9.25"
             x="-104.26733"
             y="517.80695"
             rx="3.7500002"
             ry="3.7500002" />
          <rect
             transform="matrix(-0.70710678,-0.70710678,0.70710678,-0.70710678,0,0)"
             ry="3.7500002"
             rx="3.7500002"
             y="-126.19441"
             x="-531.30695"
             height="9.25"
             width="17.75"
             id="rect6698"
             style="fill:#ffffff;fill-opacity:1;stroke:#ffffff;stroke-width:0.625;stroke-linecap:round;stroke-linejoin:round;stroke-miterlimit:4;stroke-opacity:1;stroke-dasharray:none;stroke-dashoffset:0" />
          <rect
             transform="matrix(0.70710678,-0.70710678,0.70710678,0.70710678,0,0)"
             ry="3.7500002"
             rx="3.7500002"
             y="517.80695"
             x="-51.913181"
             height="9.25"
             width="17.75"
             id="rect6700"
             style="fill:#ffffff;fill-opacity:1;stroke:#ffffff;stroke-width:0.625;stroke-linecap:round;stroke-linejoin:round;stroke-miterlimit:4;stroke-opacity:1;stroke-dasharray:none;stroke-dashoffset:0" />
          <rect
             style="fill:#ffffff;fill-opacity:1;stroke:#ffffff;stroke-width:0.625;stroke-linecap:round;stroke-linejoin:round;stroke-miterlimit:4;stroke-opacity:1;stroke-dasharray:none;stroke-dashoffset:0"
             id="rect6702"
             width="17.75"
             height="9.25"
             x="-531.30695"
             y="-73.840256"
             rx="3.7500002"
             ry="3.7500002"
             transform="matrix(-0.70710678,-0.70710678,0.70710678,-0.70710678,0,0)" />
          <rect
             transform="matrix(0.70710678,-0.70710678,0.70710678,0.70710678,0,0)"
             ry="3.7500002"
             rx="3.7500002"
             y="517.80695"
             x="0.44094628"
             height="9.25"
             width="17.75"
             id="rect6704"
             style="fill:#ffffff;fill-opacity:1;stroke:#ffffff;stroke-width:0.625;stroke-linecap:round;stroke-linejoin:round;stroke-miterlimit:4;stroke-opacity:1;stroke-dasharray:none;stroke-dashoffset:0" />
          <rect
             style="fill:#ffffff;fill-opacity:1;stroke:#ffffff;stroke-width:0.625;stroke-linecap:round;stroke-linejoin:round;stroke-miterlimit:4;stroke-opacity:1;stroke-dasharray:none;stroke-dashoffset:0"
             id="rect6706"
             width="17.75"
             height="9.25"
             x="-531.30695"
             y="-21.486116"
             rx="3.7500002"
             ry="3.7500002"
             transform="matrix(-0.70710678,-0.70710678,0.70710678,-0.70710678,0,0)" />
          <rect
             transform="matrix(-0.70710678,-0.70710678,0.70710678,-0.70710678,0,0)"
             ry="3.7500002"
             rx="3.7500002"
             y="30.86801"
             x="-531.30695"
             height="9.25"
             width="17.75"
             id="rect6710"
             style="fill:#ffffff;fill-opacity:1;stroke:#ffffff;stroke-width:0.625;stroke-linecap:round;stroke-linejoin:round;stroke-miterlimit:4;stroke-opacity:1;stroke-dasharray:none;stroke-dashoffset:0" />
          <rect
             transform="matrix(0.70710678,-0.70710678,0.70710678,0.70710678,0,0)"
             style="fill:#ffffff;fill-opacity:1;stroke:#ffffff;stroke-width:0.625;stroke-linecap:round;stroke-linejoin:round;stroke-miterlimit:4;stroke-opacity:1;stroke-dasharray:none;stroke-dashoffset:0"
             id="rect6716"
             width="17.75"
             height="9.25"
             x="-131.13739"
             y="495.48257"
             rx="3.7500002"
             ry="3.7500002" />
          <rect
             style="fill:#ffffff;fill-opacity:1;stroke:#ffffff;stroke-width:0.625;stroke-linecap:round;stroke-linejoin:round;stroke-miterlimit:4;stroke-opacity:1;stroke-dasharray:none;stroke-dashoffset:0"
             id="rect6722"
             width="17.75"
             height="9.25"
             x="-508.98257"
             y="-100.71031"
             rx="3.7500002"
             ry="3.7500002"
             transform="matrix(-0.70710678,-0.70710678,0.70710678,-0.70710678,0,0)" />
          <rect
             transform="matrix(0.70710678,-0.70710678,0.70710678,0.70710678,0,0)"
             style="fill:#ffffff;fill-opacity:1;stroke:#ffffff;stroke-width:0.625;stroke-linecap:round;stroke-linejoin:round;stroke-miterlimit:4;stroke-opacity:1;stroke-dasharray:none;stroke-dashoffset:0"
             id="rect6728"
             width="17.75"
             height="9.25"
             x="25.92502"
             y="495.48257"
             rx="3.7500002"
             ry="3.7500002" />
          <rect
             transform="matrix(-0.70710678,-0.70710678,0.70710678,-0.70710678,0,0)"
             ry="3.7500002"
             rx="3.7500002"
             y="3.9979565"
             x="-508.98257"
             height="9.25"
             width="17.75"
             id="rect6730"
             style="fill:#ffffff;fill-opacity:1;stroke:#ffffff;stroke-width:0.625;stroke-linecap:round;stroke-linejoin:round;stroke-miterlimit:4;stroke-opacity:1;stroke-dasharray:none;stroke-dashoffset:0" />
          <rect
             transform="matrix(0.70710678,-0.70710678,0.70710678,0.70710678,0,0)"
             ry="3.7500002"
             rx="3.7500002"
             y="473.15823"
             x="-104.26733"
             height="9.25"
             width="17.75"
             id="rect6736"
             style="fill:#ffffff;fill-opacity:1;stroke:#ffffff;stroke-width:0.625;stroke-linecap:round;stroke-linejoin:round;stroke-miterlimit:4;stroke-opacity:1;stroke-dasharray:none;stroke-dashoffset:0" />
          <rect
             style="fill:#ffffff;fill-opacity:1;stroke:#ffffff;stroke-width:0.625;stroke-linecap:round;stroke-linejoin:round;stroke-miterlimit:4;stroke-opacity:1;stroke-dasharray:none;stroke-dashoffset:0"
             id="rect6738"
             width="17.75"
             height="9.25"
             x="-486.65823"
             y="-126.19441"
             rx="3.7500002"
             ry="3.7500002"
             transform="matrix(-0.70710678,-0.70710678,0.70710678,-0.70710678,0,0)" />
          <rect
             transform="matrix(0.70710678,-0.70710678,0.70710678,0.70710678,0,0)"
             style="fill:#ffffff;fill-opacity:1;stroke:#ffffff;stroke-width:0.625;stroke-linecap:round;stroke-linejoin:round;stroke-miterlimit:4;stroke-opacity:1;stroke-dasharray:none;stroke-dashoffset:0"
             id="rect6744"
             width="17.75"
             height="9.25"
             x="0.44094983"
             y="473.15823"
             rx="3.7500002"
             ry="3.7500002" />
          <rect
             style="fill:#ffffff;fill-opacity:1;stroke:#ffffff;stroke-width:0.625;stroke-linecap:round;stroke-linejoin:round;stroke-miterlimit:4;stroke-opacity:1;stroke-dasharray:none;stroke-dashoffset:0"
             id="rect6750"
             width="17.75"
             height="9.25"
             x="-486.65823"
             y="30.868013"
             rx="3.7500002"
             ry="3.7500002"
             transform="matrix(-0.70710678,-0.70710678,0.70710678,-0.70710678,0,0)" />
          <rect
             transform="matrix(0.70710678,-0.70710678,0.70710678,0.70710678,0,0)"
             ry="3.7500002"
             rx="3.7500002"
             y="450.83389"
             x="-131.13739"
             height="9.25"
             width="17.75"
             id="rect6756"
             style="fill:#ffffff;fill-opacity:1;stroke:#ffffff;stroke-width:0.625;stroke-linecap:round;stroke-linejoin:round;stroke-miterlimit:4;stroke-opacity:1;stroke-dasharray:none;stroke-dashoffset:0" />
          <rect
             transform="matrix(-0.70710678,-0.70710678,0.70710678,-0.70710678,0,0)"
             ry="3.7500002"
             rx="3.7500002"
             y="-100.71031"
             x="-464.33389"
             height="9.25"
             width="17.75"
             id="rect6762"
             style="fill:#ffffff;fill-opacity:1;stroke:#ffffff;stroke-width:0.625;stroke-linecap:round;stroke-linejoin:round;stroke-miterlimit:4;stroke-opacity:1;stroke-dasharray:none;stroke-dashoffset:0" />
          <rect
             transform="matrix(0.70710678,-0.70710678,0.70710678,0.70710678,0,0)"
             ry="3.7500002"
             rx="3.7500002"
             y="450.83389"
             x="25.925016"
             height="9.25"
             width="17.75"
             id="rect6768"
             style="fill:#ffffff;fill-opacity:1;stroke:#ffffff;stroke-width:0.625;stroke-linecap:round;stroke-linejoin:round;stroke-miterlimit:4;stroke-opacity:1;stroke-dasharray:none;stroke-dashoffset:0" />
          <rect
             style="fill:#ffffff;fill-opacity:1;stroke:#ffffff;stroke-width:0.625;stroke-linecap:round;stroke-linejoin:round;stroke-miterlimit:4;stroke-opacity:1;stroke-dasharray:none;stroke-dashoffset:0"
             id="rect6770"
             width="17.75"
             height="9.25"
             x="-464.33389"
             y="3.9979529"
             rx="3.7500002"
             ry="3.7500002"
             transform="matrix(-0.70710678,-0.70710678,0.70710678,-0.70710678,0,0)" />
          <rect
             transform="matrix(0.70710678,-0.70710678,0.70710678,0.70710678,0,0)"
             style="fill:#ffffff;fill-opacity:1;stroke:#ffffff;stroke-width:0.625;stroke-linecap:round;stroke-linejoin:round;stroke-miterlimit:4;stroke-opacity:1;stroke-dasharray:none;stroke-dashoffset:0"
             id="rect6776"
             width="17.75"
             height="9.25"
             x="-104.26733"
             y="428.50955"
             rx="3.7500002"
             ry="3.7500002" />
          <rect
             transform="matrix(-0.70710678,-0.70710678,0.70710678,-0.70710678,0,0)"
             ry="3.7500002"
             rx="3.7500002"
             y="-126.19441"
             x="-442.00955"
             height="9.25"
             width="17.75"
             id="rect6778"
             style="fill:#ffffff;fill-opacity:1;stroke:#ffffff;stroke-width:0.625;stroke-linecap:round;stroke-linejoin:round;stroke-miterlimit:4;stroke-opacity:1;stroke-dasharray:none;stroke-dashoffset:0" />
          <rect
             transform="matrix(0.70710678,-0.70710678,0.70710678,0.70710678,0,0)"
             ry="3.7500002"
             rx="3.7500002"
             y="428.50955"
             x="-51.913177"
             height="9.25"
             width="17.75"
             id="rect6780"
             style="fill:#ffffff;fill-opacity:1;stroke:#ffffff;stroke-width:0.625;stroke-linecap:round;stroke-linejoin:round;stroke-miterlimit:4;stroke-opacity:1;stroke-dasharray:none;stroke-dashoffset:0" />
          <rect
             style="fill:#ffffff;fill-opacity:1;stroke:#ffffff;stroke-width:0.625;stroke-linecap:round;stroke-linejoin:round;stroke-miterlimit:4;stroke-opacity:1;stroke-dasharray:none;stroke-dashoffset:0"
             id="rect6782"
             width="17.75"
             height="9.25"
             x="-442.00955"
             y="-73.840256"
             rx="3.7500002"
             ry="3.7500002"
             transform="matrix(-0.70710678,-0.70710678,0.70710678,-0.70710678,0,0)" />
          <rect
             transform="matrix(0.70710678,-0.70710678,0.70710678,0.70710678,0,0)"
             ry="3.7500002"
             rx="3.7500002"
             y="428.50955"
             x="0.44094771"
             height="9.25"
             width="17.75"
             id="rect6784"
             style="fill:#ffffff;fill-opacity:1;stroke:#ffffff;stroke-width:0.625;stroke-linecap:round;stroke-linejoin:round;stroke-miterlimit:4;stroke-opacity:1;stroke-dasharray:none;stroke-dashoffset:0" />
          <rect
             style="fill:#ffffff;fill-opacity:1;stroke:#ffffff;stroke-width:0.625;stroke-linecap:round;stroke-linejoin:round;stroke-miterlimit:4;stroke-opacity:1;stroke-dasharray:none;stroke-dashoffset:0"
             id="rect6786"
             width="17.75"
             height="9.25"
             x="-442.00955"
             y="-21.486115"
             rx="3.7500002"
             ry="3.7500002"
             transform="matrix(-0.70710678,-0.70710678,0.70710678,-0.70710678,0,0)" />
          <rect
             transform="matrix(-0.70710678,-0.70710678,0.70710678,-0.70710678,0,0)"
             ry="3.7500002"
             rx="3.7500002"
             y="30.868011"
             x="-442.00955"
             height="9.25"
             width="17.75"
             id="rect6790"
             style="fill:#ffffff;fill-opacity:1;stroke:#ffffff;stroke-width:0.625;stroke-linecap:round;stroke-linejoin:round;stroke-miterlimit:4;stroke-opacity:1;stroke-dasharray:none;stroke-dashoffset:0" />
          <rect
             transform="matrix(0.70710678,-0.70710678,0.70710678,0.70710678,0,0)"
             ry="3.7500002"
             rx="3.7500002"
             y="406.18521"
             x="-78.783241"
             height="9.25"
             width="17.75"
             id="rect6800"
             style="fill:#ffffff;fill-opacity:1;stroke:#ffffff;stroke-width:0.625;stroke-linecap:round;stroke-linejoin:round;stroke-miterlimit:4;stroke-opacity:1;stroke-dasharray:none;stroke-dashoffset:0" />
          <rect
             style="fill:#ffffff;fill-opacity:1;stroke:#ffffff;stroke-width:0.625;stroke-linecap:round;stroke-linejoin:round;stroke-miterlimit:4;stroke-opacity:1;stroke-dasharray:none;stroke-dashoffset:0"
             id="rect6802"
             width="17.75"
             height="9.25"
             x="-419.68521"
             y="-100.71032"
             rx="3.7500002"
             ry="3.7500002"
             transform="matrix(-0.70710678,-0.70710678,0.70710678,-0.70710678,0,0)" />
          <rect
             transform="matrix(0.70710678,-0.70710678,0.70710678,0.70710678,0,0)"
             ry="3.7500002"
             rx="3.7500002"
             y="406.18521"
             x="-26.429111"
             height="9.25"
             width="17.75"
             id="rect6804"
             style="fill:#ffffff;fill-opacity:1;stroke:#ffffff;stroke-width:0.625;stroke-linecap:round;stroke-linejoin:round;stroke-miterlimit:4;stroke-opacity:1;stroke-dasharray:none;stroke-dashoffset:0" />
          <rect
             style="fill:#ffffff;fill-opacity:1;stroke:#ffffff;stroke-width:0.625;stroke-linecap:round;stroke-linejoin:round;stroke-miterlimit:4;stroke-opacity:1;stroke-dasharray:none;stroke-dashoffset:0"
             id="rect6806"
             width="17.75"
             height="9.25"
             x="-419.68521"
             y="-48.356174"
             rx="3.7500002"
             ry="3.7500002"
             transform="matrix(-0.70710678,-0.70710678,0.70710678,-0.70710678,0,0)" />
          <rect
             transform="matrix(-0.70710678,-0.70710678,0.70710678,-0.70710678,0,0)"
             ry="3.7500002"
             rx="3.7500002"
             y="3.9979508"
             x="-419.68521"
             height="9.25"
             width="17.75"
             id="rect6810"
             style="fill:#ffffff;fill-opacity:1;stroke:#ffffff;stroke-width:0.625;stroke-linecap:round;stroke-linejoin:round;stroke-miterlimit:4;stroke-opacity:1;stroke-dasharray:none;stroke-dashoffset:0" />
          <rect
             transform="matrix(0.70710678,-0.70710678,0.70710678,0.70710678,0,0)"
             style="fill:#ffffff;fill-opacity:1;stroke:#ffffff;stroke-width:0.625;stroke-linecap:round;stroke-linejoin:round;stroke-miterlimit:4;stroke-opacity:1;stroke-dasharray:none;stroke-dashoffset:0"
             id="rect6820"
             width="17.75"
             height="9.25"
             x="-51.913181"
             y="383.86087"
             rx="3.7500002"
             ry="3.7500002" />
          <rect
             transform="matrix(0.70710678,-0.70710678,0.70710678,0.70710678,0,0)"
             ry="3.7500002"
             rx="3.7500002"
             y="563.36084"
             x="-54.413177"
             height="9.25"
             width="17.75"
             id="rect6982"
             style="fill:#ffffff;fill-opacity:1;stroke:#ffffff;stroke-width:0.625;stroke-linecap:round;stroke-linejoin:round;stroke-miterlimit:4;stroke-opacity:1;stroke-dasharray:none;stroke-dashoffset:0" />
        </g>
      </g>
    </g>
    <text
       xml:space="preserve"
       style="font-size:108.95887756px;font-style:normal;font-variant:normal;font-weight:normal;font-stretch:normal;text-align:start;line-height:125%;letter-spacing:0px;word-spacing:0px;writing-mode:lr-tb;text-anchor:start;fill:#000000;fill-opacity:1;stroke:none;font-family:Sniglet;-inkscape-font-specification:Sniglet"
       x="168.62503"
       y="489.46384"
       id="text3082"
       sodipodi:linespacing="125%"><tspan
         sodipodi:role="line"
         id="tspan3084"
         x="168.62503"
         y="489.46384">oh-eye</tspan></text>
    <path
       sodipodi:type="arc"
       style="fill:#ffffff;fill-opacity:1;stroke:#ffffff;stroke-width:1.96428585;stroke-linecap:round;stroke-linejoin:round;stroke-miterlimit:4;stroke-opacity:1;stroke-dasharray:none;stroke-dashoffset:0"
       id="path4028"
       sodipodi:cx="455.40173"
       sodipodi:cy="323.71939"
       sodipodi:rx="8.788455"
       sodipodi:ry="8.788455"
       d="m 464.19019,323.71939 a 8.788455,8.788455 0 1 1 -17.57691,0 8.788455,8.788455 0 1 1 17.57691,0 z"
       transform="matrix(1.2727273,0,0,1.2727273,-123.80099,-88.686578)" />
  </g>
</svg>
