G04 CAM350 V9.5 (Build 208) Date:  Mon Jul 18 11:23:50 2016 *
G04 Database: e:\2016\7.18\2x2=2\2x2.cam *
G04 Layer 6: OhEyeZeroWithAu *
%FSLAX24Y24*%
%MOIN*%
%SFA1.000B1.000*%

%MIA0B0*%
%IPPOS*%
%AMOC8-D13*
4,1,8,0.03200,0.01325,0.01325,0.03200,-0.01325,0.03200,-0.03200,0.01325,-0.03200,-0.01325,-0.01325,-0.03200,0.01325,-0.03200,0.03200,-0.01325,0.03200,0.01325,0.00000*
%
%AMOC8-D14*
4,1,8,0.03700,0.01533,0.01533,0.03700,-0.01533,0.03700,-0.03700,0.01533,-0.03700,-0.01533,-0.01533,-0.03700,0.01533,-0.03700,0.03700,-0.01533,0.03700,0.01533,0.00000*
%
%ADD214C,0.11420*%
%ADD215R,0.06400X0.06400*%
%ADD226C,0.07880*%
%ADD229C,0.07000*%
%ADD232C,0.00600*%
%ADD233OC8-D13*%
%ADD234OC8-D14*%
%ADD235C,0.09843*%
%LNOhEyeZeroWithAu*%
%LPD*%
G54D214*
X4028Y1664D03*
Y10719D03*
X26863D03*
Y1664D03*
G54D215*
X5943Y10217D03*
G54D233*
X6943D03*
X7943D03*
X8943D03*
X9943D03*
X10943D03*
X11943D03*
X12943D03*
X13943D03*
X14943D03*
X15943D03*
X16943D03*
X17943D03*
X18943D03*
X19943D03*
X20943D03*
X21943D03*
X22943D03*
X23943D03*
X24943D03*
Y11217D03*
X23943D03*
X22943D03*
X21943D03*
X20943D03*
X19943D03*
X18943D03*
X17943D03*
X16943D03*
X15943D03*
X14943D03*
X13943D03*
X12943D03*
X11943D03*
X10943D03*
X9943D03*
X8943D03*
X7943D03*
X6943D03*
X5943D03*
G54D234*
X6150Y3550D03*
X7150D03*
X8150D03*
X9150D03*
X10150D03*
X11150D03*
X12150D03*
X13150D03*
X14150D03*
X15150D03*
X16150D03*
X17150D03*
X18150D03*
X19150D03*
X20150D03*
X21150D03*
Y2550D03*
X20150D03*
X19150D03*
X18150D03*
X17150D03*
X16150D03*
X15150D03*
X14150D03*
X13150D03*
X12150D03*
X11150D03*
X10150D03*
X9150D03*
X8150D03*
X7150D03*
X6150D03*
Y1550D03*
X7150D03*
X8150D03*
X9150D03*
X10150D03*
X11150D03*
X12150D03*
X13150D03*
X14150D03*
X15150D03*
X16150D03*
X17150D03*
X18150D03*
X19150D03*
X20150D03*
X21150D03*
G54D226*
X23976Y7300D03*
X26732D03*
G54D229*
X27410Y4960D03*
Y3960D03*
Y2960D03*
G54D214*
X30406Y1664D03*
Y10719D03*
X53241D03*
Y1664D03*
G54D215*
X32321Y10217D03*
G54D233*
X33321D03*
X34321D03*
X35321D03*
X36321D03*
X37321D03*
X38321D03*
X39321D03*
X40321D03*
X41321D03*
X42321D03*
X43321D03*
X44321D03*
X45321D03*
X46321D03*
X47321D03*
X48321D03*
X49321D03*
X50321D03*
X51321D03*
Y11217D03*
X50321D03*
X49321D03*
X48321D03*
X47321D03*
X46321D03*
X45321D03*
X44321D03*
X43321D03*
X42321D03*
X41321D03*
X40321D03*
X39321D03*
X38321D03*
X37321D03*
X36321D03*
X35321D03*
X34321D03*
X33321D03*
X32321D03*
G54D234*
X32528Y3550D03*
X33528D03*
X34528D03*
X35528D03*
X36528D03*
X37528D03*
X38528D03*
X39528D03*
X40528D03*
X41528D03*
X42528D03*
X43528D03*
X44528D03*
X45528D03*
X46528D03*
X47528D03*
Y2550D03*
X46528D03*
X45528D03*
X44528D03*
X43528D03*
X42528D03*
X41528D03*
X40528D03*
X39528D03*
X38528D03*
X37528D03*
X36528D03*
X35528D03*
X34528D03*
X33528D03*
X32528D03*
Y1550D03*
X33528D03*
X34528D03*
X35528D03*
X36528D03*
X37528D03*
X38528D03*
X39528D03*
X40528D03*
X41528D03*
X42528D03*
X43528D03*
X44528D03*
X45528D03*
X46528D03*
X47528D03*
G54D226*
X50354Y7300D03*
X53110D03*
G54D229*
X53788Y4960D03*
Y3960D03*
Y2960D03*
G54D214*
X4028Y15444D03*
Y24499D03*
X26863D03*
Y15444D03*
G54D215*
X5943Y23997D03*
G54D233*
X6943D03*
X7943D03*
X8943D03*
X9943D03*
X10943D03*
X11943D03*
X12943D03*
X13943D03*
X14943D03*
X15943D03*
X16943D03*
X17943D03*
X18943D03*
X19943D03*
X20943D03*
X21943D03*
X22943D03*
X23943D03*
X24943D03*
Y24997D03*
X23943D03*
X22943D03*
X21943D03*
X20943D03*
X19943D03*
X18943D03*
X17943D03*
X16943D03*
X15943D03*
X14943D03*
X13943D03*
X12943D03*
X11943D03*
X10943D03*
X9943D03*
X8943D03*
X7943D03*
X6943D03*
X5943D03*
G54D234*
X6150Y17330D03*
X7150D03*
X8150D03*
X9150D03*
X10150D03*
X11150D03*
X12150D03*
X13150D03*
X14150D03*
X15150D03*
X16150D03*
X17150D03*
X18150D03*
X19150D03*
X20150D03*
X21150D03*
Y16330D03*
X20150D03*
X19150D03*
X18150D03*
X17150D03*
X16150D03*
X15150D03*
X14150D03*
X13150D03*
X12150D03*
X11150D03*
X10150D03*
X9150D03*
X8150D03*
X7150D03*
X6150D03*
Y15330D03*
X7150D03*
X8150D03*
X9150D03*
X10150D03*
X11150D03*
X12150D03*
X13150D03*
X14150D03*
X15150D03*
X16150D03*
X17150D03*
X18150D03*
X19150D03*
X20150D03*
X21150D03*
G54D226*
X23976Y21080D03*
X26732D03*
G54D229*
X27410Y18740D03*
Y17740D03*
Y16740D03*
G54D214*
X30406Y15444D03*
Y24499D03*
X53241D03*
Y15444D03*
G54D215*
X32321Y23997D03*
G54D233*
X33321D03*
X34321D03*
X35321D03*
X36321D03*
X37321D03*
X38321D03*
X39321D03*
X40321D03*
X41321D03*
X42321D03*
X43321D03*
X44321D03*
X45321D03*
X46321D03*
X47321D03*
X48321D03*
X49321D03*
X50321D03*
X51321D03*
Y24997D03*
X50321D03*
X49321D03*
X48321D03*
X47321D03*
X46321D03*
X45321D03*
X44321D03*
X43321D03*
X42321D03*
X41321D03*
X40321D03*
X39321D03*
X38321D03*
X37321D03*
X36321D03*
X35321D03*
X34321D03*
X33321D03*
X32321D03*
G54D234*
X32528Y17330D03*
X33528D03*
X34528D03*
X35528D03*
X36528D03*
X37528D03*
X38528D03*
X39528D03*
X40528D03*
X41528D03*
X42528D03*
X43528D03*
X44528D03*
X45528D03*
X46528D03*
X47528D03*
Y16330D03*
X46528D03*
X45528D03*
X44528D03*
X43528D03*
X42528D03*
X41528D03*
X40528D03*
X39528D03*
X38528D03*
X37528D03*
X36528D03*
X35528D03*
X34528D03*
X33528D03*
X32528D03*
Y15330D03*
X33528D03*
X34528D03*
X35528D03*
X36528D03*
X37528D03*
X38528D03*
X39528D03*
X40528D03*
X41528D03*
X42528D03*
X43528D03*
X44528D03*
X45528D03*
X46528D03*
X47528D03*
G54D226*
X50354Y21080D03*
X53110D03*
G54D229*
X53788Y18740D03*
Y17740D03*
Y16740D03*
G54D235*
X6587Y-698D03*
X48713D03*
G54D214*
X4028Y29223D03*
Y38278D03*
X26863D03*
Y29223D03*
G54D215*
X5943Y37776D03*
G54D233*
X6943D03*
X7943D03*
X8943D03*
X9943D03*
X10943D03*
X11943D03*
X12943D03*
X13943D03*
X14943D03*
X15943D03*
X16943D03*
X17943D03*
X18943D03*
X19943D03*
X20943D03*
X21943D03*
X22943D03*
X23943D03*
X24943D03*
Y38776D03*
X23943D03*
X22943D03*
X21943D03*
X20943D03*
X19943D03*
X18943D03*
X17943D03*
X16943D03*
X15943D03*
X14943D03*
X13943D03*
X12943D03*
X11943D03*
X10943D03*
X9943D03*
X8943D03*
X7943D03*
X6943D03*
X5943D03*
G54D234*
X6150Y31109D03*
X7150D03*
X8150D03*
X9150D03*
X10150D03*
X11150D03*
X12150D03*
X13150D03*
X14150D03*
X15150D03*
X16150D03*
X17150D03*
X18150D03*
X19150D03*
X20150D03*
X21150D03*
Y30109D03*
X20150D03*
X19150D03*
X18150D03*
X17150D03*
X16150D03*
X15150D03*
X14150D03*
X13150D03*
X12150D03*
X11150D03*
X10150D03*
X9150D03*
X8150D03*
X7150D03*
X6150D03*
Y29109D03*
X7150D03*
X8150D03*
X9150D03*
X10150D03*
X11150D03*
X12150D03*
X13150D03*
X14150D03*
X15150D03*
X16150D03*
X17150D03*
X18150D03*
X19150D03*
X20150D03*
X21150D03*
G54D226*
X23976Y34859D03*
X26732D03*
G54D229*
X27410Y32519D03*
Y31519D03*
Y30519D03*
G54D214*
X30406Y29223D03*
Y38278D03*
X53241D03*
Y29223D03*
G54D215*
X32321Y37776D03*
G54D233*
X33321D03*
X34321D03*
X35321D03*
X36321D03*
X37321D03*
X38321D03*
X39321D03*
X40321D03*
X41321D03*
X42321D03*
X43321D03*
X44321D03*
X45321D03*
X46321D03*
X47321D03*
X48321D03*
X49321D03*
X50321D03*
X51321D03*
Y38776D03*
X50321D03*
X49321D03*
X48321D03*
X47321D03*
X46321D03*
X45321D03*
X44321D03*
X43321D03*
X42321D03*
X41321D03*
X40321D03*
X39321D03*
X38321D03*
X37321D03*
X36321D03*
X35321D03*
X34321D03*
X33321D03*
X32321D03*
G54D234*
X32528Y31109D03*
X33528D03*
X34528D03*
X35528D03*
X36528D03*
X37528D03*
X38528D03*
X39528D03*
X40528D03*
X41528D03*
X42528D03*
X43528D03*
X44528D03*
X45528D03*
X46528D03*
X47528D03*
Y30109D03*
X46528D03*
X45528D03*
X44528D03*
X43528D03*
X42528D03*
X41528D03*
X40528D03*
X39528D03*
X38528D03*
X37528D03*
X36528D03*
X35528D03*
X34528D03*
X33528D03*
X32528D03*
Y29109D03*
X33528D03*
X34528D03*
X35528D03*
X36528D03*
X37528D03*
X38528D03*
X39528D03*
X40528D03*
X41528D03*
X42528D03*
X43528D03*
X44528D03*
X45528D03*
X46528D03*
X47528D03*
G54D226*
X50354Y34859D03*
X53110D03*
G54D229*
X53788Y32519D03*
Y31519D03*
Y30519D03*
G54D235*
X6587Y40640D03*
X48713D03*
G54D232*
X23778Y1665D02*
G01X23608D01*
X23551Y1722*
X23608Y1778*
X23551Y1835*
X23608Y1892*
X23778*
Y2033D02*
G01X23608D01*
X23551Y2090*
X23608Y2147*
X23551Y2203*
X23608Y2260*
X23778*
X23608Y2402D02*
G01Y2458D01*
X23551*
Y2402*
X23608*
X23721Y2586D02*
G01Y2699D01*
X23835Y2642D02*
G01X23551D01*
X23835D02*
G01X23891Y2699D01*
Y2831D02*
G01Y2888D01*
X23551*
Y2831D02*
G01Y2945D01*
X23608Y3077D02*
G01X23551Y3134D01*
Y3304*
X23778*
Y3077D02*
G01X23608D01*
X23551Y3445D02*
G01X23778Y3672D01*
X23891Y3813D02*
G01Y3870D01*
X23551*
Y3813D02*
G01Y3927D01*
X23608Y4059D02*
G01X23551Y4116D01*
Y4286*
X23494D02*
G01X23438Y4229D01*
Y4172*
X23494Y4286D02*
G01X23778D01*
X23608Y4427D02*
G01Y4484D01*
X23551*
Y4427*
X23608*
Y4611D02*
G01X23551Y4668D01*
Y4838*
X23608Y4980D02*
G01X23551Y5037D01*
Y5150*
X23608Y5207*
X23721*
X23778Y5150*
Y5037*
X23721Y4980*
X23608*
X23778Y4838D02*
G01Y4668D01*
X23721Y4611*
X23608*
Y4059D02*
G01X23778D01*
X23551Y3672D02*
G01X23778Y3445D01*
Y5348D02*
G01X23551D01*
Y5462D02*
G01X23721D01*
X23778Y5518*
X23721Y5575*
X23551*
Y5716D02*
G01X23891Y5943D01*
X23721Y6085D02*
G01X23608D01*
X23551Y6141*
Y6255*
X23608Y6312*
X23721*
X23778Y6255*
Y6141*
X23721Y6085*
Y6453D02*
G01X23778Y6510D01*
Y6623*
X23721Y6680*
X23551*
X23608Y6821D02*
G01X23721D01*
X23778Y6878*
Y6992*
X23721Y7048*
X23664*
Y6821*
X23608D02*
G01X23551Y6878D01*
Y6992*
X23608Y7190D02*
G01X23551Y7246D01*
Y7417*
X23494D02*
G01X23438Y7360D01*
Y7303*
X23494Y7417D02*
G01X23778D01*
Y7190D02*
G01X23608D01*
Y7558D02*
G01X23721D01*
X23778Y7615*
Y7728*
X23721Y7785*
X23664*
Y7558*
X23608D02*
G01X23551Y7615D01*
Y7728*
Y7926D02*
G01Y7983D01*
X23608*
Y7926*
X23551*
Y8110D02*
G01X23891D01*
X23778Y8167D02*
G01Y8281D01*
X23721Y8337*
X23551*
X23721Y8110D02*
G01X23778Y8167D01*
Y8479D02*
G01Y8592D01*
X23835Y8535D02*
G01X23608D01*
X23551Y8592*
Y8724D02*
G01X23778D01*
Y8781*
X23721Y8838*
X23778Y8894*
X23721Y8951*
X23551*
Y8838D02*
G01X23721D01*
X23551Y9093D02*
G01Y9206D01*
Y9149D02*
G01X23891D01*
Y9093*
Y6453D02*
G01X23551D01*
X23721Y5462D02*
G01X23778Y5405D01*
Y5348*
Y1524D02*
G01X23608D01*
X23551Y1467*
X23608Y1410*
X23551Y1353*
X23608Y1297*
X23778*
X50156Y1665D02*
G01X49986D01*
X49929Y1722*
X49986Y1778*
X49929Y1835*
X49986Y1892*
X50156*
Y2033D02*
G01X49986D01*
X49929Y2090*
X49986Y2147*
X49929Y2203*
X49986Y2260*
X50156*
X49986Y2402D02*
G01Y2458D01*
X49929*
Y2402*
X49986*
X50099Y2586D02*
G01Y2699D01*
X50213Y2642D02*
G01X49929D01*
X50213D02*
G01X50269Y2699D01*
Y2831D02*
G01Y2888D01*
X49929*
Y2831D02*
G01Y2945D01*
X49986Y3077D02*
G01X49929Y3134D01*
Y3304*
X50156*
Y3077D02*
G01X49986D01*
X49929Y3445D02*
G01X50156Y3672D01*
X50269Y3813D02*
G01Y3870D01*
X49929*
Y3813D02*
G01Y3927D01*
X49986Y4059D02*
G01X49929Y4116D01*
Y4286*
X49872D02*
G01X49816Y4229D01*
Y4172*
X49872Y4286D02*
G01X50156D01*
X49986Y4427D02*
G01Y4484D01*
X49929*
Y4427*
X49986*
Y4611D02*
G01X49929Y4668D01*
Y4838*
X49986Y4980D02*
G01X49929Y5037D01*
Y5150*
X49986Y5207*
X50099*
X50156Y5150*
Y5037*
X50099Y4980*
X49986*
X50156Y4838D02*
G01Y4668D01*
X50099Y4611*
X49986*
Y4059D02*
G01X50156D01*
X49929Y3672D02*
G01X50156Y3445D01*
Y5348D02*
G01X49929D01*
Y5462D02*
G01X50099D01*
X50156Y5518*
X50099Y5575*
X49929*
Y5716D02*
G01X50269Y5943D01*
X50099Y6085D02*
G01X49986D01*
X49929Y6141*
Y6255*
X49986Y6312*
X50099*
X50156Y6255*
Y6141*
X50099Y6085*
Y6453D02*
G01X50156Y6510D01*
Y6623*
X50099Y6680*
X49929*
X49986Y6821D02*
G01X50099D01*
X50156Y6878*
Y6992*
X50099Y7048*
X50042*
Y6821*
X49986D02*
G01X49929Y6878D01*
Y6992*
X49986Y7190D02*
G01X49929Y7246D01*
Y7417*
X49872D02*
G01X49816Y7360D01*
Y7303*
X49872Y7417D02*
G01X50156D01*
Y7190D02*
G01X49986D01*
Y7558D02*
G01X50099D01*
X50156Y7615*
Y7728*
X50099Y7785*
X50042*
Y7558*
X49986D02*
G01X49929Y7615D01*
Y7728*
Y7926D02*
G01Y7983D01*
X49986*
Y7926*
X49929*
Y8110D02*
G01X50269D01*
X50156Y8167D02*
G01Y8281D01*
X50099Y8337*
X49929*
X50099Y8110D02*
G01X50156Y8167D01*
Y8479D02*
G01Y8592D01*
X50213Y8535D02*
G01X49986D01*
X49929Y8592*
Y8724D02*
G01X50156D01*
Y8781*
X50099Y8838*
X50156Y8894*
X50099Y8951*
X49929*
Y8838D02*
G01X50099D01*
X49929Y9093D02*
G01Y9206D01*
Y9149D02*
G01X50269D01*
Y9093*
Y6453D02*
G01X49929D01*
X50099Y5462D02*
G01X50156Y5405D01*
Y5348*
Y1524D02*
G01X49986D01*
X49929Y1467*
X49986Y1410*
X49929Y1353*
X49986Y1297*
X50156*
X23778Y15445D02*
G01X23608D01*
X23551Y15502*
X23608Y15558*
X23551Y15615*
X23608Y15672*
X23778*
Y15813D02*
G01X23608D01*
X23551Y15870*
X23608Y15927*
X23551Y15983*
X23608Y16040*
X23778*
X23608Y16182D02*
G01Y16238D01*
X23551*
Y16182*
X23608*
X23721Y16366D02*
G01Y16479D01*
X23835Y16422D02*
G01X23551D01*
X23835D02*
G01X23891Y16479D01*
Y16611D02*
G01Y16668D01*
X23551*
Y16611D02*
G01Y16725D01*
X23608Y16857D02*
G01X23551Y16914D01*
Y17084*
X23778*
Y16857D02*
G01X23608D01*
X23551Y17225D02*
G01X23778Y17452D01*
X23891Y17593D02*
G01Y17650D01*
X23551*
Y17593D02*
G01Y17707D01*
X23608Y17839D02*
G01X23551Y17896D01*
Y18066*
X23494D02*
G01X23438Y18009D01*
Y17952*
X23494Y18066D02*
G01X23778D01*
X23608Y18207D02*
G01Y18264D01*
X23551*
Y18207*
X23608*
Y18391D02*
G01X23551Y18448D01*
Y18618*
X23608Y18760D02*
G01X23551Y18817D01*
Y18930*
X23608Y18987*
X23721*
X23778Y18930*
Y18817*
X23721Y18760*
X23608*
X23778Y18618D02*
G01Y18448D01*
X23721Y18391*
X23608*
Y17839D02*
G01X23778D01*
X23551Y17452D02*
G01X23778Y17225D01*
Y19128D02*
G01X23551D01*
Y19242D02*
G01X23721D01*
X23778Y19298*
X23721Y19355*
X23551*
Y19496D02*
G01X23891Y19723D01*
X23721Y19865D02*
G01X23608D01*
X23551Y19921*
Y20035*
X23608Y20092*
X23721*
X23778Y20035*
Y19921*
X23721Y19865*
Y20233D02*
G01X23778Y20290D01*
Y20403*
X23721Y20460*
X23551*
X23608Y20601D02*
G01X23721D01*
X23778Y20658*
Y20772*
X23721Y20828*
X23664*
Y20601*
X23608D02*
G01X23551Y20658D01*
Y20772*
X23608Y20970D02*
G01X23551Y21026D01*
Y21197*
X23494D02*
G01X23438Y21140D01*
Y21083*
X23494Y21197D02*
G01X23778D01*
Y20970D02*
G01X23608D01*
Y21338D02*
G01X23721D01*
X23778Y21395*
Y21508*
X23721Y21565*
X23664*
Y21338*
X23608D02*
G01X23551Y21395D01*
Y21508*
Y21706D02*
G01Y21763D01*
X23608*
Y21706*
X23551*
Y21890D02*
G01X23891D01*
X23778Y21947D02*
G01Y22061D01*
X23721Y22117*
X23551*
X23721Y21890D02*
G01X23778Y21947D01*
Y22259D02*
G01Y22372D01*
X23835Y22315D02*
G01X23608D01*
X23551Y22372*
Y22504D02*
G01X23778D01*
Y22561*
X23721Y22618*
X23778Y22674*
X23721Y22731*
X23551*
Y22618D02*
G01X23721D01*
X23551Y22873D02*
G01Y22986D01*
Y22929D02*
G01X23891D01*
Y22873*
Y20233D02*
G01X23551D01*
X23721Y19242D02*
G01X23778Y19185D01*
Y19128*
Y15304D02*
G01X23608D01*
X23551Y15247*
X23608Y15190*
X23551Y15133*
X23608Y15077*
X23778*
X50156Y15445D02*
G01X49986D01*
X49929Y15502*
X49986Y15558*
X49929Y15615*
X49986Y15672*
X50156*
Y15813D02*
G01X49986D01*
X49929Y15870*
X49986Y15927*
X49929Y15983*
X49986Y16040*
X50156*
X49986Y16182D02*
G01Y16238D01*
X49929*
Y16182*
X49986*
X50099Y16366D02*
G01Y16479D01*
X50213Y16422D02*
G01X49929D01*
X50213D02*
G01X50269Y16479D01*
Y16611D02*
G01Y16668D01*
X49929*
Y16611D02*
G01Y16725D01*
X49986Y16857D02*
G01X49929Y16914D01*
Y17084*
X50156*
Y16857D02*
G01X49986D01*
X49929Y17225D02*
G01X50156Y17452D01*
X50269Y17593D02*
G01Y17650D01*
X49929*
Y17593D02*
G01Y17707D01*
X49986Y17839D02*
G01X49929Y17896D01*
Y18066*
X49872D02*
G01X49816Y18009D01*
Y17952*
X49872Y18066D02*
G01X50156D01*
X49986Y18207D02*
G01Y18264D01*
X49929*
Y18207*
X49986*
Y18391D02*
G01X49929Y18448D01*
Y18618*
X49986Y18760D02*
G01X49929Y18817D01*
Y18930*
X49986Y18987*
X50099*
X50156Y18930*
Y18817*
X50099Y18760*
X49986*
X50156Y18618D02*
G01Y18448D01*
X50099Y18391*
X49986*
Y17839D02*
G01X50156D01*
X49929Y17452D02*
G01X50156Y17225D01*
Y19128D02*
G01X49929D01*
Y19242D02*
G01X50099D01*
X50156Y19298*
X50099Y19355*
X49929*
Y19496D02*
G01X50269Y19723D01*
X50099Y19865D02*
G01X49986D01*
X49929Y19921*
Y20035*
X49986Y20092*
X50099*
X50156Y20035*
Y19921*
X50099Y19865*
Y20233D02*
G01X50156Y20290D01*
Y20403*
X50099Y20460*
X49929*
X49986Y20601D02*
G01X50099D01*
X50156Y20658*
Y20772*
X50099Y20828*
X50042*
Y20601*
X49986D02*
G01X49929Y20658D01*
Y20772*
X49986Y20970D02*
G01X49929Y21026D01*
Y21197*
X49872D02*
G01X49816Y21140D01*
Y21083*
X49872Y21197D02*
G01X50156D01*
Y20970D02*
G01X49986D01*
Y21338D02*
G01X50099D01*
X50156Y21395*
Y21508*
X50099Y21565*
X50042*
Y21338*
X49986D02*
G01X49929Y21395D01*
Y21508*
Y21706D02*
G01Y21763D01*
X49986*
Y21706*
X49929*
Y21890D02*
G01X50269D01*
X50156Y21947D02*
G01Y22061D01*
X50099Y22117*
X49929*
X50099Y21890D02*
G01X50156Y21947D01*
Y22259D02*
G01Y22372D01*
X50213Y22315D02*
G01X49986D01*
X49929Y22372*
Y22504D02*
G01X50156D01*
Y22561*
X50099Y22618*
X50156Y22674*
X50099Y22731*
X49929*
Y22618D02*
G01X50099D01*
X49929Y22873D02*
G01Y22986D01*
Y22929D02*
G01X50269D01*
Y22873*
Y20233D02*
G01X49929D01*
X50099Y19242D02*
G01X50156Y19185D01*
Y19128*
Y15304D02*
G01X49986D01*
X49929Y15247*
X49986Y15190*
X49929Y15133*
X49986Y15077*
X50156*
X23778Y29224D02*
G01X23608D01*
X23551Y29281*
X23608Y29337*
X23551Y29394*
X23608Y29451*
X23778*
Y29592D02*
G01X23608D01*
X23551Y29649*
X23608Y29706*
X23551Y29762*
X23608Y29819*
X23778*
X23608Y29961D02*
G01Y30017D01*
X23551*
Y29961*
X23608*
X23721Y30145D02*
G01Y30258D01*
X23835Y30201D02*
G01X23551D01*
X23835D02*
G01X23891Y30258D01*
Y30390D02*
G01Y30447D01*
X23551*
Y30390D02*
G01Y30504D01*
X23608Y30636D02*
G01X23551Y30693D01*
Y30863*
X23778*
Y30636D02*
G01X23608D01*
X23551Y31004D02*
G01X23778Y31231D01*
X23891Y31372D02*
G01Y31429D01*
X23551*
Y31372D02*
G01Y31486D01*
X23608Y31618D02*
G01X23551Y31675D01*
Y31845*
X23494D02*
G01X23438Y31788D01*
Y31731*
X23494Y31845D02*
G01X23778D01*
X23608Y31986D02*
G01Y32043D01*
X23551*
Y31986*
X23608*
Y32170D02*
G01X23551Y32227D01*
Y32397*
X23608Y32539D02*
G01X23551Y32596D01*
Y32709*
X23608Y32766*
X23721*
X23778Y32709*
Y32596*
X23721Y32539*
X23608*
X23778Y32397D02*
G01Y32227D01*
X23721Y32170*
X23608*
Y31618D02*
G01X23778D01*
X23551Y31231D02*
G01X23778Y31004D01*
Y32907D02*
G01X23551D01*
Y33021D02*
G01X23721D01*
X23778Y33077*
X23721Y33134*
X23551*
Y33275D02*
G01X23891Y33502D01*
X23721Y33644D02*
G01X23608D01*
X23551Y33700*
Y33814*
X23608Y33871*
X23721*
X23778Y33814*
Y33700*
X23721Y33644*
Y34012D02*
G01X23778Y34069D01*
Y34182*
X23721Y34239*
X23551*
X23608Y34380D02*
G01X23721D01*
X23778Y34437*
Y34551*
X23721Y34607*
X23664*
Y34380*
X23608D02*
G01X23551Y34437D01*
Y34551*
X23608Y34749D02*
G01X23551Y34805D01*
Y34976*
X23494D02*
G01X23438Y34919D01*
Y34862*
X23494Y34976D02*
G01X23778D01*
Y34749D02*
G01X23608D01*
Y35117D02*
G01X23721D01*
X23778Y35174*
Y35287*
X23721Y35344*
X23664*
Y35117*
X23608D02*
G01X23551Y35174D01*
Y35287*
Y35485D02*
G01Y35542D01*
X23608*
Y35485*
X23551*
Y35669D02*
G01X23891D01*
X23778Y35726D02*
G01Y35840D01*
X23721Y35896*
X23551*
X23721Y35669D02*
G01X23778Y35726D01*
Y36038D02*
G01Y36151D01*
X23835Y36094D02*
G01X23608D01*
X23551Y36151*
Y36283D02*
G01X23778D01*
Y36340*
X23721Y36397*
X23778Y36453*
X23721Y36510*
X23551*
Y36397D02*
G01X23721D01*
X23551Y36652D02*
G01Y36765D01*
Y36708D02*
G01X23891D01*
Y36652*
Y34012D02*
G01X23551D01*
X23721Y33021D02*
G01X23778Y32964D01*
Y32907*
Y29083D02*
G01X23608D01*
X23551Y29026*
X23608Y28969*
X23551Y28912*
X23608Y28856*
X23778*
X50156Y29224D02*
G01X49986D01*
X49929Y29281*
X49986Y29337*
X49929Y29394*
X49986Y29451*
X50156*
Y29592D02*
G01X49986D01*
X49929Y29649*
X49986Y29706*
X49929Y29762*
X49986Y29819*
X50156*
X49986Y29961D02*
G01Y30017D01*
X49929*
Y29961*
X49986*
X50099Y30145D02*
G01Y30258D01*
X50213Y30201D02*
G01X49929D01*
X50213D02*
G01X50269Y30258D01*
Y30390D02*
G01Y30447D01*
X49929*
Y30390D02*
G01Y30504D01*
X49986Y30636D02*
G01X49929Y30693D01*
Y30863*
X50156*
Y30636D02*
G01X49986D01*
X49929Y31004D02*
G01X50156Y31231D01*
X50269Y31372D02*
G01Y31429D01*
X49929*
Y31372D02*
G01Y31486D01*
X49986Y31618D02*
G01X49929Y31675D01*
Y31845*
X49872D02*
G01X49816Y31788D01*
Y31731*
X49872Y31845D02*
G01X50156D01*
X49986Y31986D02*
G01Y32043D01*
X49929*
Y31986*
X49986*
Y32170D02*
G01X49929Y32227D01*
Y32397*
X49986Y32539D02*
G01X49929Y32596D01*
Y32709*
X49986Y32766*
X50099*
X50156Y32709*
Y32596*
X50099Y32539*
X49986*
X50156Y32397D02*
G01Y32227D01*
X50099Y32170*
X49986*
Y31618D02*
G01X50156D01*
X49929Y31231D02*
G01X50156Y31004D01*
Y32907D02*
G01X49929D01*
Y33021D02*
G01X50099D01*
X50156Y33077*
X50099Y33134*
X49929*
Y33275D02*
G01X50269Y33502D01*
X50099Y33644D02*
G01X49986D01*
X49929Y33700*
Y33814*
X49986Y33871*
X50099*
X50156Y33814*
Y33700*
X50099Y33644*
Y34012D02*
G01X50156Y34069D01*
Y34182*
X50099Y34239*
X49929*
X49986Y34380D02*
G01X50099D01*
X50156Y34437*
Y34551*
X50099Y34607*
X50042*
Y34380*
X49986D02*
G01X49929Y34437D01*
Y34551*
X49986Y34749D02*
G01X49929Y34805D01*
Y34976*
X49872D02*
G01X49816Y34919D01*
Y34862*
X49872Y34976D02*
G01X50156D01*
Y34749D02*
G01X49986D01*
Y35117D02*
G01X50099D01*
X50156Y35174*
Y35287*
X50099Y35344*
X50042*
Y35117*
X49986D02*
G01X49929Y35174D01*
Y35287*
Y35485D02*
G01Y35542D01*
X49986*
Y35485*
X49929*
Y35669D02*
G01X50269D01*
X50156Y35726D02*
G01Y35840D01*
X50099Y35896*
X49929*
X50099Y35669D02*
G01X50156Y35726D01*
Y36038D02*
G01Y36151D01*
X50213Y36094D02*
G01X49986D01*
X49929Y36151*
Y36283D02*
G01X50156D01*
Y36340*
X50099Y36397*
X50156Y36453*
X50099Y36510*
X49929*
Y36397D02*
G01X50099D01*
X49929Y36652D02*
G01Y36765D01*
Y36708D02*
G01X50269D01*
Y36652*
Y34012D02*
G01X49929D01*
X50099Y33021D02*
G01X50156Y32964D01*
Y32907*
Y29083D02*
G01X49986D01*
X49929Y29026*
X49986Y28969*
X49929Y28912*
X49986Y28856*
X50156*
M02*
