G04 CAM350 V9.5 (Build 208) Date:  Mon Jul 18 11:23:50 2016 *
G04 Database: e:\2016\7.18\2x2=2\2x2.cam *
G04 Layer 4: OhEyeZeroWithAu *
%FSLAX24Y24*%
%MOIN*%
%SFA1.000B1.000*%

%MIA0B0*%
%IPPOS*%
%AMOC8-D120*
4,1,8,0.03200,0.01325,0.01325,0.03200,-0.01325,0.03200,-0.03200,0.01325,-0.03200,-0.01325,-0.01325,-0.03200,0.01325,-0.03200,0.03200,-0.01325,0.03200,0.01325,0.00000*
%
%AMOC8-D20*
4,1,8,0.03700,0.01533,0.01533,0.03700,-0.01533,0.03700,-0.03700,0.01533,-0.03700,-0.01533,-0.01533,-0.03700,0.01533,-0.03700,0.03700,-0.01533,0.03700,0.01533,0.00000*
%
%ADD214C,0.11420*%
%ADD215R,0.06400X0.06400*%
%ADD216OC8-D120*%
%ADD217R,0.05520X0.06700*%
%ADD218R,0.02570X0.05120*%
%ADD219R,0.05910X0.04730*%
%ADD220R,0.04730X0.05910*%
%ADD221R,0.06310X0.05400*%
%ADD222R,0.04340X0.06310*%
%ADD223R,0.02760X0.06900*%
%ADD224OC8-D20*%
%ADD225R,0.09060X0.11420*%
%ADD226C,0.07880*%
%ADD227R,0.11420X0.11420*%
%ADD228R,0.09850X0.11420*%
%ADD229C,0.07000*%
%ADD230R,0.06700X0.07490*%
%ADD231R,0.01970X0.03350*%
%ADD235C,0.09843*%
%LNOhEyeZeroWithAu*%
%LPD*%
G54D214*
X4028Y1664D03*
Y10719D03*
X26863D03*
Y1664D03*
G54D215*
X5943Y10217D03*
G54D216*
X6943D03*
X7943D03*
X8943D03*
X9943D03*
X10943D03*
X11943D03*
X12943D03*
X13943D03*
X14943D03*
X15943D03*
X16943D03*
X17943D03*
X18943D03*
X19943D03*
X20943D03*
X21943D03*
X22943D03*
X23943D03*
X24943D03*
Y11217D03*
X23943D03*
X22943D03*
X21943D03*
X20943D03*
X19943D03*
X18943D03*
X17943D03*
X16943D03*
X15943D03*
X14943D03*
X13943D03*
X12943D03*
X11943D03*
X10943D03*
X9943D03*
X8943D03*
X7943D03*
X6943D03*
X5943D03*
G54D217*
X18586Y9110D03*
X19334D03*
X20086Y9130D03*
X20834D03*
X21633Y9117D03*
X22381D03*
X22394Y8340D03*
X21646D03*
X20834D03*
X20086D03*
X19334Y8350D03*
X18586D03*
X21606Y7510D03*
X22394D03*
X22371Y6677D03*
X21623D03*
X21613Y5787D03*
X20831D03*
X20083D03*
X22401D03*
G54D218*
X5524Y7538D03*
X4776D03*
Y8562D03*
X5150D03*
X5524D03*
G54D219*
X6650Y8444D03*
Y7656D03*
X3650D03*
Y8444D03*
X18470Y7524D03*
Y6736D03*
G54D220*
X22203Y4353D03*
X22991D03*
X8794Y7800D03*
X8006D03*
Y8800D03*
X8794D03*
G54D221*
X4650Y6485D03*
Y5615D03*
G54D222*
X3650Y5636D03*
Y6464D03*
G54D223*
X9650Y5987D03*
X10150D03*
X10650D03*
X11150D03*
X11650D03*
X12150D03*
X12650D03*
X13150D03*
X14150D03*
X14650D03*
X15150D03*
X15650D03*
X16150D03*
X16650D03*
X17150D03*
X17650D03*
Y8113D03*
X17150D03*
X16650D03*
X16150D03*
X15650D03*
X15150D03*
X14650D03*
X14150D03*
X13150D03*
X12650D03*
X12150D03*
X11650D03*
X11150D03*
X10650D03*
X10150D03*
X9650D03*
G54D224*
X9150Y3550D03*
X8150D03*
X7150D03*
X6150D03*
Y2550D03*
X7150D03*
X8150D03*
X9150D03*
X10150D03*
X11150D03*
X12150D03*
X13150D03*
X14150D03*
X15150D03*
X16150D03*
X17150D03*
X18150D03*
X19150D03*
X20150D03*
X21150D03*
Y3550D03*
X20150D03*
X19150D03*
X18150D03*
X17150D03*
X16150D03*
X15150D03*
X14150D03*
X13150D03*
X12150D03*
X11150D03*
X10150D03*
Y1550D03*
X11150D03*
X12150D03*
X13150D03*
X14150D03*
X15150D03*
X16150D03*
X17150D03*
X18150D03*
X19150D03*
X20150D03*
X21150D03*
X9150D03*
X8150D03*
X7150D03*
X6150D03*
G54D225*
X27598Y8757D03*
G54D226*
X26732Y7300D03*
X23976D03*
G54D227*
X23464Y8757D03*
G54D228*
X26378Y5843D03*
G54D229*
X27410Y4960D03*
Y3960D03*
Y2960D03*
G54D230*
X24961Y5810D03*
X23859D03*
X24859Y8910D03*
X25961D03*
G54D231*
X19906Y7544D03*
X19650D03*
X19394D03*
Y6816D03*
X19650D03*
X19906D03*
G54D214*
X30406Y1664D03*
Y10719D03*
X53241D03*
Y1664D03*
G54D215*
X32321Y10217D03*
G54D216*
X33321D03*
X34321D03*
X35321D03*
X36321D03*
X37321D03*
X38321D03*
X39321D03*
X40321D03*
X41321D03*
X42321D03*
X43321D03*
X44321D03*
X45321D03*
X46321D03*
X47321D03*
X48321D03*
X49321D03*
X50321D03*
X51321D03*
Y11217D03*
X50321D03*
X49321D03*
X48321D03*
X47321D03*
X46321D03*
X45321D03*
X44321D03*
X43321D03*
X42321D03*
X41321D03*
X40321D03*
X39321D03*
X38321D03*
X37321D03*
X36321D03*
X35321D03*
X34321D03*
X33321D03*
X32321D03*
G54D217*
X44964Y9110D03*
X45712D03*
X46464Y9130D03*
X47212D03*
X48011Y9117D03*
X48759D03*
X48772Y8340D03*
X48024D03*
X47212D03*
X46464D03*
X45712Y8350D03*
X44964D03*
X47984Y7510D03*
X48772D03*
X48749Y6677D03*
X48001D03*
X47991Y5787D03*
X47209D03*
X46461D03*
X48779D03*
G54D218*
X31902Y7538D03*
X31154D03*
Y8562D03*
X31528D03*
X31902D03*
G54D219*
X33028Y8444D03*
Y7656D03*
X30028D03*
Y8444D03*
X44848Y7524D03*
Y6736D03*
G54D220*
X48581Y4353D03*
X49369D03*
X35172Y7800D03*
X34384D03*
Y8800D03*
X35172D03*
G54D221*
X31028Y6485D03*
Y5615D03*
G54D222*
X30028Y5636D03*
Y6464D03*
G54D223*
X36028Y5987D03*
X36528D03*
X37028D03*
X37528D03*
X38028D03*
X38528D03*
X39028D03*
X39528D03*
X40528D03*
X41028D03*
X41528D03*
X42028D03*
X42528D03*
X43028D03*
X43528D03*
X44028D03*
Y8113D03*
X43528D03*
X43028D03*
X42528D03*
X42028D03*
X41528D03*
X41028D03*
X40528D03*
X39528D03*
X39028D03*
X38528D03*
X38028D03*
X37528D03*
X37028D03*
X36528D03*
X36028D03*
G54D224*
X35528Y3550D03*
X34528D03*
X33528D03*
X32528D03*
Y2550D03*
X33528D03*
X34528D03*
X35528D03*
X36528D03*
X37528D03*
X38528D03*
X39528D03*
X40528D03*
X41528D03*
X42528D03*
X43528D03*
X44528D03*
X45528D03*
X46528D03*
X47528D03*
Y3550D03*
X46528D03*
X45528D03*
X44528D03*
X43528D03*
X42528D03*
X41528D03*
X40528D03*
X39528D03*
X38528D03*
X37528D03*
X36528D03*
Y1550D03*
X37528D03*
X38528D03*
X39528D03*
X40528D03*
X41528D03*
X42528D03*
X43528D03*
X44528D03*
X45528D03*
X46528D03*
X47528D03*
X35528D03*
X34528D03*
X33528D03*
X32528D03*
G54D225*
X53976Y8757D03*
G54D226*
X53110Y7300D03*
X50354D03*
G54D227*
X49842Y8757D03*
G54D228*
X52756Y5843D03*
G54D229*
X53788Y4960D03*
Y3960D03*
Y2960D03*
G54D230*
X51339Y5810D03*
X50237D03*
X51237Y8910D03*
X52339D03*
G54D231*
X46284Y7544D03*
X46028D03*
X45772D03*
Y6816D03*
X46028D03*
X46284D03*
G54D214*
X4028Y15444D03*
Y24499D03*
X26863D03*
Y15444D03*
G54D215*
X5943Y23997D03*
G54D216*
X6943D03*
X7943D03*
X8943D03*
X9943D03*
X10943D03*
X11943D03*
X12943D03*
X13943D03*
X14943D03*
X15943D03*
X16943D03*
X17943D03*
X18943D03*
X19943D03*
X20943D03*
X21943D03*
X22943D03*
X23943D03*
X24943D03*
Y24997D03*
X23943D03*
X22943D03*
X21943D03*
X20943D03*
X19943D03*
X18943D03*
X17943D03*
X16943D03*
X15943D03*
X14943D03*
X13943D03*
X12943D03*
X11943D03*
X10943D03*
X9943D03*
X8943D03*
X7943D03*
X6943D03*
X5943D03*
G54D217*
X18586Y22890D03*
X19334D03*
X20086Y22910D03*
X20834D03*
X21633Y22897D03*
X22381D03*
X22394Y22120D03*
X21646D03*
X20834D03*
X20086D03*
X19334Y22130D03*
X18586D03*
X21606Y21290D03*
X22394D03*
X22371Y20457D03*
X21623D03*
X21613Y19567D03*
X20831D03*
X20083D03*
X22401D03*
G54D218*
X5524Y21318D03*
X4776D03*
Y22342D03*
X5150D03*
X5524D03*
G54D219*
X6650Y22224D03*
Y21436D03*
X3650D03*
Y22224D03*
X18470Y21304D03*
Y20516D03*
G54D220*
X22203Y18133D03*
X22991D03*
X8794Y21580D03*
X8006D03*
Y22580D03*
X8794D03*
G54D221*
X4650Y20265D03*
Y19395D03*
G54D222*
X3650Y19416D03*
Y20244D03*
G54D223*
X9650Y19767D03*
X10150D03*
X10650D03*
X11150D03*
X11650D03*
X12150D03*
X12650D03*
X13150D03*
X14150D03*
X14650D03*
X15150D03*
X15650D03*
X16150D03*
X16650D03*
X17150D03*
X17650D03*
Y21893D03*
X17150D03*
X16650D03*
X16150D03*
X15650D03*
X15150D03*
X14650D03*
X14150D03*
X13150D03*
X12650D03*
X12150D03*
X11650D03*
X11150D03*
X10650D03*
X10150D03*
X9650D03*
G54D224*
X9150Y17330D03*
X8150D03*
X7150D03*
X6150D03*
Y16330D03*
X7150D03*
X8150D03*
X9150D03*
X10150D03*
X11150D03*
X12150D03*
X13150D03*
X14150D03*
X15150D03*
X16150D03*
X17150D03*
X18150D03*
X19150D03*
X20150D03*
X21150D03*
Y17330D03*
X20150D03*
X19150D03*
X18150D03*
X17150D03*
X16150D03*
X15150D03*
X14150D03*
X13150D03*
X12150D03*
X11150D03*
X10150D03*
Y15330D03*
X11150D03*
X12150D03*
X13150D03*
X14150D03*
X15150D03*
X16150D03*
X17150D03*
X18150D03*
X19150D03*
X20150D03*
X21150D03*
X9150D03*
X8150D03*
X7150D03*
X6150D03*
G54D225*
X27598Y22537D03*
G54D226*
X26732Y21080D03*
X23976D03*
G54D227*
X23464Y22537D03*
G54D228*
X26378Y19623D03*
G54D229*
X27410Y18740D03*
Y17740D03*
Y16740D03*
G54D230*
X24961Y19590D03*
X23859D03*
X24859Y22690D03*
X25961D03*
G54D231*
X19906Y21324D03*
X19650D03*
X19394D03*
Y20596D03*
X19650D03*
X19906D03*
G54D214*
X30406Y15444D03*
Y24499D03*
X53241D03*
Y15444D03*
G54D215*
X32321Y23997D03*
G54D216*
X33321D03*
X34321D03*
X35321D03*
X36321D03*
X37321D03*
X38321D03*
X39321D03*
X40321D03*
X41321D03*
X42321D03*
X43321D03*
X44321D03*
X45321D03*
X46321D03*
X47321D03*
X48321D03*
X49321D03*
X50321D03*
X51321D03*
Y24997D03*
X50321D03*
X49321D03*
X48321D03*
X47321D03*
X46321D03*
X45321D03*
X44321D03*
X43321D03*
X42321D03*
X41321D03*
X40321D03*
X39321D03*
X38321D03*
X37321D03*
X36321D03*
X35321D03*
X34321D03*
X33321D03*
X32321D03*
G54D217*
X44964Y22890D03*
X45712D03*
X46464Y22910D03*
X47212D03*
X48011Y22897D03*
X48759D03*
X48772Y22120D03*
X48024D03*
X47212D03*
X46464D03*
X45712Y22130D03*
X44964D03*
X47984Y21290D03*
X48772D03*
X48749Y20457D03*
X48001D03*
X47991Y19567D03*
X47209D03*
X46461D03*
X48779D03*
G54D218*
X31902Y21318D03*
X31154D03*
Y22342D03*
X31528D03*
X31902D03*
G54D219*
X33028Y22224D03*
Y21436D03*
X30028D03*
Y22224D03*
X44848Y21304D03*
Y20516D03*
G54D220*
X48581Y18133D03*
X49369D03*
X35172Y21580D03*
X34384D03*
Y22580D03*
X35172D03*
G54D221*
X31028Y20265D03*
Y19395D03*
G54D222*
X30028Y19416D03*
Y20244D03*
G54D223*
X36028Y19767D03*
X36528D03*
X37028D03*
X37528D03*
X38028D03*
X38528D03*
X39028D03*
X39528D03*
X40528D03*
X41028D03*
X41528D03*
X42028D03*
X42528D03*
X43028D03*
X43528D03*
X44028D03*
Y21893D03*
X43528D03*
X43028D03*
X42528D03*
X42028D03*
X41528D03*
X41028D03*
X40528D03*
X39528D03*
X39028D03*
X38528D03*
X38028D03*
X37528D03*
X37028D03*
X36528D03*
X36028D03*
G54D224*
X35528Y17330D03*
X34528D03*
X33528D03*
X32528D03*
Y16330D03*
X33528D03*
X34528D03*
X35528D03*
X36528D03*
X37528D03*
X38528D03*
X39528D03*
X40528D03*
X41528D03*
X42528D03*
X43528D03*
X44528D03*
X45528D03*
X46528D03*
X47528D03*
Y17330D03*
X46528D03*
X45528D03*
X44528D03*
X43528D03*
X42528D03*
X41528D03*
X40528D03*
X39528D03*
X38528D03*
X37528D03*
X36528D03*
Y15330D03*
X37528D03*
X38528D03*
X39528D03*
X40528D03*
X41528D03*
X42528D03*
X43528D03*
X44528D03*
X45528D03*
X46528D03*
X47528D03*
X35528D03*
X34528D03*
X33528D03*
X32528D03*
G54D225*
X53976Y22537D03*
G54D226*
X53110Y21080D03*
X50354D03*
G54D227*
X49842Y22537D03*
G54D228*
X52756Y19623D03*
G54D229*
X53788Y18740D03*
Y17740D03*
Y16740D03*
G54D230*
X51339Y19590D03*
X50237D03*
X51237Y22690D03*
X52339D03*
G54D231*
X46284Y21324D03*
X46028D03*
X45772D03*
Y20596D03*
X46028D03*
X46284D03*
G54D235*
X6587Y-698D03*
X48713D03*
G54D214*
X4028Y29223D03*
Y38278D03*
X26863D03*
Y29223D03*
G54D215*
X5943Y37776D03*
G54D216*
X6943D03*
X7943D03*
X8943D03*
X9943D03*
X10943D03*
X11943D03*
X12943D03*
X13943D03*
X14943D03*
X15943D03*
X16943D03*
X17943D03*
X18943D03*
X19943D03*
X20943D03*
X21943D03*
X22943D03*
X23943D03*
X24943D03*
Y38776D03*
X23943D03*
X22943D03*
X21943D03*
X20943D03*
X19943D03*
X18943D03*
X17943D03*
X16943D03*
X15943D03*
X14943D03*
X13943D03*
X12943D03*
X11943D03*
X10943D03*
X9943D03*
X8943D03*
X7943D03*
X6943D03*
X5943D03*
G54D217*
X18586Y36669D03*
X19334D03*
X20086Y36689D03*
X20834D03*
X21633Y36676D03*
X22381D03*
X22394Y35899D03*
X21646D03*
X20834D03*
X20086D03*
X19334Y35909D03*
X18586D03*
X21606Y35069D03*
X22394D03*
X22371Y34236D03*
X21623D03*
X21613Y33346D03*
X20831D03*
X20083D03*
X22401D03*
G54D218*
X5524Y35097D03*
X4776D03*
Y36121D03*
X5150D03*
X5524D03*
G54D219*
X6650Y36003D03*
Y35215D03*
X3650D03*
Y36003D03*
X18470Y35083D03*
Y34295D03*
G54D220*
X22203Y31912D03*
X22991D03*
X8794Y35359D03*
X8006D03*
Y36359D03*
X8794D03*
G54D221*
X4650Y34044D03*
Y33174D03*
G54D222*
X3650Y33195D03*
Y34023D03*
G54D223*
X9650Y33546D03*
X10150D03*
X10650D03*
X11150D03*
X11650D03*
X12150D03*
X12650D03*
X13150D03*
X14150D03*
X14650D03*
X15150D03*
X15650D03*
X16150D03*
X16650D03*
X17150D03*
X17650D03*
Y35672D03*
X17150D03*
X16650D03*
X16150D03*
X15650D03*
X15150D03*
X14650D03*
X14150D03*
X13150D03*
X12650D03*
X12150D03*
X11650D03*
X11150D03*
X10650D03*
X10150D03*
X9650D03*
G54D224*
X9150Y31109D03*
X8150D03*
X7150D03*
X6150D03*
Y30109D03*
X7150D03*
X8150D03*
X9150D03*
X10150D03*
X11150D03*
X12150D03*
X13150D03*
X14150D03*
X15150D03*
X16150D03*
X17150D03*
X18150D03*
X19150D03*
X20150D03*
X21150D03*
Y31109D03*
X20150D03*
X19150D03*
X18150D03*
X17150D03*
X16150D03*
X15150D03*
X14150D03*
X13150D03*
X12150D03*
X11150D03*
X10150D03*
Y29109D03*
X11150D03*
X12150D03*
X13150D03*
X14150D03*
X15150D03*
X16150D03*
X17150D03*
X18150D03*
X19150D03*
X20150D03*
X21150D03*
X9150D03*
X8150D03*
X7150D03*
X6150D03*
G54D225*
X27598Y36316D03*
G54D226*
X26732Y34859D03*
X23976D03*
G54D227*
X23464Y36316D03*
G54D228*
X26378Y33402D03*
G54D229*
X27410Y32519D03*
Y31519D03*
Y30519D03*
G54D230*
X24961Y33369D03*
X23859D03*
X24859Y36469D03*
X25961D03*
G54D231*
X19906Y35103D03*
X19650D03*
X19394D03*
Y34375D03*
X19650D03*
X19906D03*
G54D214*
X30406Y29223D03*
Y38278D03*
X53241D03*
Y29223D03*
G54D215*
X32321Y37776D03*
G54D216*
X33321D03*
X34321D03*
X35321D03*
X36321D03*
X37321D03*
X38321D03*
X39321D03*
X40321D03*
X41321D03*
X42321D03*
X43321D03*
X44321D03*
X45321D03*
X46321D03*
X47321D03*
X48321D03*
X49321D03*
X50321D03*
X51321D03*
Y38776D03*
X50321D03*
X49321D03*
X48321D03*
X47321D03*
X46321D03*
X45321D03*
X44321D03*
X43321D03*
X42321D03*
X41321D03*
X40321D03*
X39321D03*
X38321D03*
X37321D03*
X36321D03*
X35321D03*
X34321D03*
X33321D03*
X32321D03*
G54D217*
X44964Y36669D03*
X45712D03*
X46464Y36689D03*
X47212D03*
X48011Y36676D03*
X48759D03*
X48772Y35899D03*
X48024D03*
X47212D03*
X46464D03*
X45712Y35909D03*
X44964D03*
X47984Y35069D03*
X48772D03*
X48749Y34236D03*
X48001D03*
X47991Y33346D03*
X47209D03*
X46461D03*
X48779D03*
G54D218*
X31902Y35097D03*
X31154D03*
Y36121D03*
X31528D03*
X31902D03*
G54D219*
X33028Y36003D03*
Y35215D03*
X30028D03*
Y36003D03*
X44848Y35083D03*
Y34295D03*
G54D220*
X48581Y31912D03*
X49369D03*
X35172Y35359D03*
X34384D03*
Y36359D03*
X35172D03*
G54D221*
X31028Y34044D03*
Y33174D03*
G54D222*
X30028Y33195D03*
Y34023D03*
G54D223*
X36028Y33546D03*
X36528D03*
X37028D03*
X37528D03*
X38028D03*
X38528D03*
X39028D03*
X39528D03*
X40528D03*
X41028D03*
X41528D03*
X42028D03*
X42528D03*
X43028D03*
X43528D03*
X44028D03*
Y35672D03*
X43528D03*
X43028D03*
X42528D03*
X42028D03*
X41528D03*
X41028D03*
X40528D03*
X39528D03*
X39028D03*
X38528D03*
X38028D03*
X37528D03*
X37028D03*
X36528D03*
X36028D03*
G54D224*
X35528Y31109D03*
X34528D03*
X33528D03*
X32528D03*
Y30109D03*
X33528D03*
X34528D03*
X35528D03*
X36528D03*
X37528D03*
X38528D03*
X39528D03*
X40528D03*
X41528D03*
X42528D03*
X43528D03*
X44528D03*
X45528D03*
X46528D03*
X47528D03*
Y31109D03*
X46528D03*
X45528D03*
X44528D03*
X43528D03*
X42528D03*
X41528D03*
X40528D03*
X39528D03*
X38528D03*
X37528D03*
X36528D03*
Y29109D03*
X37528D03*
X38528D03*
X39528D03*
X40528D03*
X41528D03*
X42528D03*
X43528D03*
X44528D03*
X45528D03*
X46528D03*
X47528D03*
X35528D03*
X34528D03*
X33528D03*
X32528D03*
G54D225*
X53976Y36316D03*
G54D226*
X53110Y34859D03*
X50354D03*
G54D227*
X49842Y36316D03*
G54D228*
X52756Y33402D03*
G54D229*
X53788Y32519D03*
Y31519D03*
Y30519D03*
G54D230*
X51339Y33369D03*
X50237D03*
X51237Y36469D03*
X52339D03*
G54D231*
X46284Y35103D03*
X46028D03*
X45772D03*
Y34375D03*
X46028D03*
X46284D03*
G54D235*
X6587Y40640D03*
X48713D03*
M02*
