M48
INCH,TZ
VER,1
FMAT,2
T01C0.0236F100B1000S6H2000
T02C0.04F100B1000S6H2000
T03C0.0748F100B1000S6H2000
T04C0.1102F100B1000S6H2000
DETECT,ON
ATC,ON
%
T01
X4900Y4550
X13150Y8800
X12150Y9300
X11150Y9050
X14650Y7300
X15650
X18150Y8930
X19000Y7720
X21020Y7310
X25400Y8180
X21440Y9770
X15650Y9050
X6400
X5150Y9300
X31278Y4550
X39528Y8800
X38528Y9300
X37528Y9050
X41028Y7300
X42028
X44528Y8930
X45378Y7720
X47398Y7310
X51778Y8180
X47818Y9770
X42028Y9050
X32778
X31528Y9300
X4900Y18330
X13150Y22580
X12150Y23080
X11150Y22830
X14650Y21080
X15650
X18150Y22710
X19000Y21500
X21020Y21090
X25400Y21960
X21440Y23550
X15650Y22830
X6400
X5150Y23080
X31278Y18330
X39528Y22580
X38528Y23080
X37528Y22830
X41028Y21080
X42028
X44528Y22710
X45378Y21500
X47398Y21090
X51778Y21960
X47818Y23550
X42028Y22830
X32778
X31528Y23080
X4900Y32109
X13150Y36359
X12150Y36859
X11150Y36609
X14650Y34859
X15650
X18150Y36489
X19000Y35279
X21020Y34869
X25400Y35739
X21440Y37329
X15650Y36609
X6400
X5150Y36859
X31278Y32109
X39528Y36359
X38528Y36859
X37528Y36609
X41028Y34859
X42028
X44528Y36489
X45378Y35279
X47398Y34869
X51778Y35739
X47818Y37329
X42028Y36609
X32778
X31528Y36859
T02
X5943Y10217
X6943
X7943
X8943
X9943
X10943
X11943
X12943
X13943
X14943
X15943
X16943
X17943
X18943
X19943
X20943
X21943
X22943
X23943
X24943
Y11217
X23943
X22943
X21943
X20943
X19943
X18943
X17943
X16943
X15943
X14943
X13943
X12943
X11943
X10943
X9943
X8943
X7943
X6943
X5943
X6150Y3550
X7150
X8150
X9150
X10150
X11150
X12150
X13150
X14150
X15150
X16150
X17150
X18150
X19150
X20150
X21150
Y2550
X20150
X19150
X18150
X17150
X16150
X15150
X14150
X13150
X12150
X11150
X10150
X9150
X8150
X7150
X6150
Y1550
X7150
X8150
X9150
X10150
X11150
X12150
X13150
X14150
X15150
X16150
X17150
X18150
X19150
X20150
X21150
X27410Y2960
Y3960
Y4960
X32321Y10217
X33321
X34321
X35321
X36321
X37321
X38321
X39321
X40321
X41321
X42321
X43321
X44321
X45321
X46321
X47321
X48321
X49321
X50321
X51321
Y11217
X50321
X49321
X48321
X47321
X46321
X45321
X44321
X43321
X42321
X41321
X40321
X39321
X38321
X37321
X36321
X35321
X34321
X33321
X32321
X32528Y3550
X33528
X34528
X35528
X36528
X37528
X38528
X39528
X40528
X41528
X42528
X43528
X44528
X45528
X46528
X47528
Y2550
X46528
X45528
X44528
X43528
X42528
X41528
X40528
X39528
X38528
X37528
X36528
X35528
X34528
X33528
X32528
Y1550
X33528
X34528
X35528
X36528
X37528
X38528
X39528
X40528
X41528
X42528
X43528
X44528
X45528
X46528
X47528
X53788Y2960
Y3960
Y4960
X5943Y23997
X6943
X7943
X8943
X9943
X10943
X11943
X12943
X13943
X14943
X15943
X16943
X17943
X18943
X19943
X20943
X21943
X22943
X23943
X24943
Y24997
X23943
X22943
X21943
X20943
X19943
X18943
X17943
X16943
X15943
X14943
X13943
X12943
X11943
X10943
X9943
X8943
X7943
X6943
X5943
X6150Y17330
X7150
X8150
X9150
X10150
X11150
X12150
X13150
X14150
X15150
X16150
X17150
X18150
X19150
X20150
X21150
Y16330
X20150
X19150
X18150
X17150
X16150
X15150
X14150
X13150
X12150
X11150
X10150
X9150
X8150
X7150
X6150
Y15330
X7150
X8150
X9150
X10150
X11150
X12150
X13150
X14150
X15150
X16150
X17150
X18150
X19150
X20150
X21150
X27410Y16740
Y17740
Y18740
X32321Y23997
X33321
X34321
X35321
X36321
X37321
X38321
X39321
X40321
X41321
X42321
X43321
X44321
X45321
X46321
X47321
X48321
X49321
X50321
X51321
Y24997
X50321
X49321
X48321
X47321
X46321
X45321
X44321
X43321
X42321
X41321
X40321
X39321
X38321
X37321
X36321
X35321
X34321
X33321
X32321
X32528Y17330
X33528
X34528
X35528
X36528
X37528
X38528
X39528
X40528
X41528
X42528
X43528
X44528
X45528
X46528
X47528
Y16330
X46528
X45528
X44528
X43528
X42528
X41528
X40528
X39528
X38528
X37528
X36528
X35528
X34528
X33528
X32528
Y15330
X33528
X34528
X35528
X36528
X37528
X38528
X39528
X40528
X41528
X42528
X43528
X44528
X45528
X46528
X47528
X53788Y16740
Y17740
Y18740
X5943Y37776
X6943
X7943
X8943
X9943
X10943
X11943
X12943
X13943
X14943
X15943
X16943
X17943
X18943
X19943
X20943
X21943
X22943
X23943
X24943
Y38776
X23943
X22943
X21943
X20943
X19943
X18943
X17943
X16943
X15943
X14943
X13943
X12943
X11943
X10943
X9943
X8943
X7943
X6943
X5943
X6150Y31109
X7150
X8150
X9150
X10150
X11150
X12150
X13150
X14150
X15150
X16150
X17150
X18150
X19150
X20150
X21150
Y30109
X20150
X19150
X18150
X17150
X16150
X15150
X14150
X13150
X12150
X11150
X10150
X9150
X8150
X7150
X6150
Y29109
X7150
X8150
X9150
X10150
X11150
X12150
X13150
X14150
X15150
X16150
X17150
X18150
X19150
X20150
X21150
X27410Y30519
Y31519
Y32519
X32321Y37776
X33321
X34321
X35321
X36321
X37321
X38321
X39321
X40321
X41321
X42321
X43321
X44321
X45321
X46321
X47321
X48321
X49321
X50321
X51321
Y38776
X50321
X49321
X48321
X47321
X46321
X45321
X44321
X43321
X42321
X41321
X40321
X39321
X38321
X37321
X36321
X35321
X34321
X33321
X32321
X32528Y31109
X33528
X34528
X35528
X36528
X37528
X38528
X39528
X40528
X41528
X42528
X43528
X44528
X45528
X46528
X47528
Y30109
X46528
X45528
X44528
X43528
X42528
X41528
X40528
X39528
X38528
X37528
X36528
X35528
X34528
X33528
X32528
Y29109
X33528
X34528
X35528
X36528
X37528
X38528
X39528
X40528
X41528
X42528
X43528
X44528
X45528
X46528
X47528
X53788Y30519
Y31519
Y32519
T03
X26732Y7300
X23976
X53110
X50354
X26732Y21080
X23976
X53110
X50354
X26732Y34859
X23976
X53110
X50354
T04
X4028Y1664
Y10719
X26863
Y1664
X30406
Y10719
X53241
Y1664
X4028Y15444
Y24499
X26863
Y15444
X30406
Y24499
X53241
Y15444
X4028Y29223
Y38278
X26863
Y29223
X30406
Y38278
X53241
Y29223
M30
