M48
INCH,TZ
VER,1
FMAT,2
T01C0.0236F100B1000S6H2000
T02C0.032F100B1000S6H2000
T03C0.04F100B1000S6H2000
T04C0.1102F100B1000S6H2000
DETECT,ON
ATC,ON
%
T01
X14746Y10150
Y10650
X15496Y17400
X16496
Y19150
X13996Y18900
X12996Y19400
X11996Y19150
X7246
X5996Y19400
X5746Y14650
X21800Y18097
X22496Y18150
X22996Y19150
X23996
X24746Y18400
Y17650
X24996Y17150
X41124Y10150
Y10650
X41874Y17400
X42874
Y19150
X40374Y18900
X39374Y19400
X38374Y19150
X33624
X32374Y19400
X32124Y14650
X48178Y18097
X48874Y18150
X49374Y19150
X50374
X51124Y18400
Y17650
X51374Y17150
X14746Y34166
Y34666
X15496Y41416
X16496
Y43166
X13996Y42916
X12996Y43416
X11996Y43166
X7246
X5996Y43416
X5746Y38666
X21800Y42113
X22496Y42166
X22996Y43166
X23996
X24746Y42416
Y41666
X24996Y41166
X41124Y34166
Y34666
X41874Y41416
X42874
Y43166
X40374Y42916
X39374Y43416
X38374Y43166
X33624
X32374Y43416
X32124Y38666
X48178Y42113
X48874Y42166
X49374Y43166
X50374
X51124Y42416
Y41666
X51374Y41166
T02
X13996Y5150
X12996
X11996
X10996
X9996
X8996
X7996
X6996
Y1150
X7996
X8996
X9996
X10996
X11996
X12996
X13996
X40374Y5150
X39374
X38374
X37374
X36374
X35374
X34374
X33374
Y1150
X34374
X35374
X36374
X37374
X38374
X39374
X40374
X13996Y29166
X12996
X11996
X10996
X9996
X8996
X7996
X6996
Y25166
X7996
X8996
X9996
X10996
X11996
X12996
X13996
X40374Y29166
X39374
X38374
X37374
X36374
X35374
X34374
X33374
Y25166
X34374
X35374
X36374
X37374
X38374
X39374
X40374
T03
X14996Y3650
X15996
X16996
X17996
X18996
X19996
X13996Y7150
X12996
X11996
X10996
X9996
X8996
X7996
X6996
Y8150
Y9150
X7996
X8996
Y8150
X7996
X9996
X10996
Y9150
X9996
X11996
X12996
X13996
Y8150
X12996
X11996
Y11650
X12996
X13996
Y12650
X12996
X11996
X10996
X9996
X8996
X7996
X6996
Y11650
X7996
X8996
X9996
X10996
Y13650
X9996
X8996
X7996
X6996
X11996
X12996
X13996
X14996
X15996
X16996
X17996
X18996
X19996
X20996
X21996
Y12650
X20996
X19996
X18996
X17996
X16996
X15996
X14996
Y11650
X15996
X16996
X17996
X18996
X19996
X20996
X21996
X25496Y11900
X26496
X25790Y20317
X24790
X23790
X22790
X21790
X20790
X19790
X18790
X17790
X16790
X15790
X14790
X13790
X12790
X11790
X10790
X9790
X8790
X7790
X6790
Y21317
X7790
X8790
X9790
X10790
X11790
X12790
X13790
X14790
X15790
X16790
X17790
X18790
X19790
X20790
X21790
X22790
X23790
X24790
X25790
X4746Y6650
Y5650
Y4650
Y3650
X41374
X42374
X43374
X44374
X45374
X46374
X40374Y7150
X39374
X38374
X37374
X36374
X35374
X34374
X33374
Y8150
Y9150
X34374
X35374
Y8150
X34374
X36374
X37374
Y9150
X36374
X38374
X39374
X40374
Y8150
X39374
X38374
Y11650
X39374
X40374
Y12650
X39374
X38374
X37374
X36374
X35374
X34374
X33374
Y11650
X34374
X35374
X36374
X37374
Y13650
X36374
X35374
X34374
X33374
X38374
X39374
X40374
X41374
X42374
X43374
X44374
X45374
X46374
X47374
X48374
Y12650
X47374
X46374
X45374
X44374
X43374
X42374
X41374
Y11650
X42374
X43374
X44374
X45374
X46374
X47374
X48374
X51874Y11900
X52874
X52168Y20317
X51168
X50168
X49168
X48168
X47168
X46168
X45168
X44168
X43168
X42168
X41168
X40168
X39168
X38168
X37168
X36168
X35168
X34168
X33168
Y21317
X34168
X35168
X36168
X37168
X38168
X39168
X40168
X41168
X42168
X43168
X44168
X45168
X46168
X47168
X48168
X49168
X50168
X51168
X52168
X31124Y6650
Y5650
Y4650
Y3650
X14996Y27666
X15996
X16996
X17996
X18996
X19996
X13996Y31166
X12996
X11996
X10996
X9996
X8996
X7996
X6996
Y32166
Y33166
X7996
X8996
Y32166
X7996
X9996
X10996
Y33166
X9996
X11996
X12996
X13996
Y32166
X12996
X11996
Y35666
X12996
X13996
Y36666
X12996
X11996
X10996
X9996
X8996
X7996
X6996
Y35666
X7996
X8996
X9996
X10996
Y37666
X9996
X8996
X7996
X6996
X11996
X12996
X13996
X14996
X15996
X16996
X17996
X18996
X19996
X20996
X21996
Y36666
X20996
X19996
X18996
X17996
X16996
X15996
X14996
Y35666
X15996
X16996
X17996
X18996
X19996
X20996
X21996
X25496Y35916
X26496
X25790Y44333
X24790
X23790
X22790
X21790
X20790
X19790
X18790
X17790
X16790
X15790
X14790
X13790
X12790
X11790
X10790
X9790
X8790
X7790
X6790
Y45333
X7790
X8790
X9790
X10790
X11790
X12790
X13790
X14790
X15790
X16790
X17790
X18790
X19790
X20790
X21790
X22790
X23790
X24790
X25790
X4746Y30666
Y29666
Y28666
Y27666
X41374
X42374
X43374
X44374
X45374
X46374
X40374Y31166
X39374
X38374
X37374
X36374
X35374
X34374
X33374
Y32166
Y33166
X34374
X35374
Y32166
X34374
X36374
X37374
Y33166
X36374
X38374
X39374
X40374
Y32166
X39374
X38374
Y35666
X39374
X40374
Y36666
X39374
X38374
X37374
X36374
X35374
X34374
X33374
Y35666
X34374
X35374
X36374
X37374
Y37666
X36374
X35374
X34374
X33374
X38374
X39374
X40374
X41374
X42374
X43374
X44374
X45374
X46374
X47374
X48374
Y36666
X47374
X46374
X45374
X44374
X43374
X42374
X41374
Y35666
X42374
X43374
X44374
X45374
X46374
X47374
X48374
X51874Y35916
X52874
X52168Y44333
X51168
X50168
X49168
X48168
X47168
X46168
X45168
X44168
X43168
X42168
X41168
X40168
X39168
X38168
X37168
X36168
X35168
X34168
X33168
Y45333
X34168
X35168
X36168
X37168
X38168
X39168
X40168
X41168
X42168
X43168
X44168
X45168
X46168
X47168
X48168
X49168
X50168
X51168
X52168
X31124Y30666
Y29666
Y28666
Y27666
T04
X4874Y1528
X27709
Y20819
X4874
X31252Y1528
X54087
Y20819
X31252
X4874Y25544
X27709
Y44835
X4874
X31252Y25544
X54087
Y44835
X31252
M30
